<?xml version="1.0" encoding="utf-8"?>
<!-- Generator: Adobe Illustrator 16.0.0, SVG Export Plug-In . SVG Version: 6.00 Build 0)  -->
<!DOCTYPE svg PUBLIC "-//W3C//DTD SVG 1.1//EN" "http://www.w3.org/Graphics/SVG/1.1/DTD/svg11.dtd">
<svg version="1.1" id="Layer_1" xmlns="http://www.w3.org/2000/svg" xmlns:xlink="http://www.w3.org/1999/xlink" x="0px" y="0px"
	 width="400px" height="400.241px" viewBox="0 0 400 400.241" enable-background="new 0 0 400 400.241" xml:space="preserve">
<g>
	<g>
		<g>
			<g>
				<path fill="#1F5A7B" d="M10.942,3.432c3.007,0,5.447,2.441,5.447,5.448c0,3.007-2.439,5.449-5.447,5.449
					c-3.012,0-5.451-2.442-5.451-5.449C5.491,5.873,7.93,3.432,10.942,3.432"/>
			</g>
		</g>
		<g>
			<g>
				<path fill="#1F5A7B" d="M73.809,3.432c3.006,0,5.448,2.441,5.448,5.448c0,3.007-2.441,5.449-5.448,5.449
					c-3.012,0-5.45-2.442-5.45-5.449C68.359,5.873,70.797,3.432,73.809,3.432"/>
			</g>
		</g>
		<g>
			<g>
				<path fill="#1F5A7B" d="M52.854,2.16c3.006,0,5.446,2.441,5.446,5.451c0,3.007-2.44,5.448-5.446,5.448
					c-3.012,0-5.45-2.44-5.45-5.448C47.403,4.601,49.841,2.16,52.854,2.16"/>
			</g>
		</g>
		<g>
			<g>
				<path fill="#1F5A7B" d="M31.896,2.16c3.007,0,5.449,2.441,5.449,5.451c0,3.007-2.442,5.448-5.449,5.448
					c-3.012,0-5.449-2.44-5.449-5.448C26.448,4.601,28.885,2.16,31.896,2.16"/>
			</g>
		</g>
	</g>
	<path fill="#FFFFFF" d="M10.942,3.432c3.007,0,5.447,2.441,5.447,5.448c0,3.007-2.439,5.449-5.447,5.449
		c-3.012,0-5.451-2.442-5.451-5.449C5.491,5.873,7.93,3.432,10.942,3.432"/>
	<path fill="#FFFFFF" d="M73.809,3.432c3.006,0,5.448,2.441,5.448,5.448c0,3.007-2.441,5.449-5.448,5.449
		c-3.012,0-5.45-2.442-5.45-5.449C68.359,5.873,70.797,3.432,73.809,3.432"/>
	<path fill="#FFFFFF" d="M52.854,2.16c3.006,0,5.446,2.441,5.446,5.451c0,3.007-2.44,5.448-5.446,5.448
		c-3.012,0-5.45-2.44-5.45-5.448C47.403,4.601,49.841,2.16,52.854,2.16"/>
	<g>
		<g>
			<path fill="#FFFFFF" d="M77.271,16.124l-3.423,4.016l-3.411-4c-0.546,0.246-1.058,0.563-1.55,0.915
				c1.333,1.497,2.154,3.463,2.154,5.623c0,3.306-1.911,6.168-4.681,7.563c1.995,1.491,4.624,2.405,7.513,2.405
				c3.936,0,7.398-1.686,9.417-4.233c0.089-0.621,0.149-1.256,0.149-1.904C83.44,21.759,80.873,17.717,77.271,16.124z"/>
			<path fill="#FFFFFF" d="M54.104,22.677c0-2.894,1.461-5.453,3.682-6.98c-0.469-0.325-0.955-0.615-1.471-0.845l-3.421,4.014
				l-3.413-3.998c-3.461,1.554-5.933,5.373-6.098,9.896c3.801,0.436,6.948,3.037,8.185,6.538c0.445,0.044,0.894,0.072,1.351,0.072
				c2.046,0,3.958-0.464,5.611-1.258C55.896,28.678,54.104,25.882,54.104,22.677z"/>
		</g>
		<g>
			<path fill="#FFFFFF" d="M12.964,22.677c0-2.334,0.95-4.451,2.481-5.984c-0.337-0.207-0.678-0.409-1.042-0.569l-3.422,4.016
				l-3.411-4C3.987,17.748,1.44,21.776,1.44,26.507c0,0.648,0.059,1.283,0.149,1.904c2.02,2.547,5.483,4.233,9.417,4.233
				c2.723,0,5.206-0.819,7.154-2.16C15.112,29.201,12.964,26.185,12.964,22.677z"/>
			<path fill="#FFFFFF" d="M35.36,14.853l-3.422,4.014l-3.412-3.998c-0.666,0.298-1.28,0.705-1.863,1.159
				c1.967,1.553,3.238,3.953,3.238,6.649c0,3.036-1.611,5.697-4.018,7.191c1.756,0.943,3.836,1.505,6.08,1.505
				c0.328,0,0.647-0.029,0.968-0.052c1.272-3.623,4.59-6.285,8.567-6.589C41.319,20.207,38.832,16.39,35.36,14.853z"/>
		</g>
	</g>
	<path fill="#FFFFFF" d="M31.896,2.16c3.007,0,5.449,2.441,5.449,5.451c0,3.007-2.442,5.448-5.449,5.448
		c-3.012,0-5.449-2.44-5.449-5.448C26.448,4.601,28.885,2.16,31.896,2.16"/>
	<path fill="#FFFFFF" d="M21.436,16.111c3.623,0,6.563,2.943,6.563,6.566c0,3.623-2.94,6.563-6.563,6.563
		c-3.628,0-6.567-2.94-6.567-6.563C14.869,19.054,17.807,16.111,21.436,16.111"/>
	<path fill="#FFFFFF" d="M62.574,16.111c3.624,0,6.563,2.943,6.563,6.566c0,3.623-2.939,6.563-6.563,6.563
		c-3.628,0-6.565-2.94-6.565-6.563C56.008,19.054,58.945,16.111,62.574,16.111"/>
	<g>
		<path fill="#FFFFFF" d="M56.151,63.205c-2.958,3.734-8.034,6.202-13.801,6.202c-5.764,0-10.841-2.467-13.799-6.202
			c-0.133-0.91-0.219-1.839-0.219-2.788c0-6.934,3.732-12.837,8.983-15.194l5,5.86l5.013-5.882
			c5.281,2.335,9.041,8.257,9.041,15.216C56.369,61.366,56.282,62.295,56.151,63.205z"/>
		<path fill="#FFFFFF" d="M32.908,45.776c0.077-0.609,0.131-1.229,0.131-1.862c0-5.721-3.093-10.59-7.433-12.51l-4.123,4.835
			l-4.111-4.816c-4.315,1.938-7.385,6.791-7.385,12.491c0,0.781,0.072,1.544,0.181,2.293c2.432,3.071,6.605,5.099,11.346,5.099
			c3.304,0,6.319-1,8.675-2.64C30.987,47.591,31.897,46.621,32.908,45.776z"/>
		<path fill="#FFFFFF" d="M66.746,31.404l-4.122,4.835l-4.112-4.816c-4.316,1.938-7.386,6.791-7.386,12.491
			c0,0.468,0.031,0.928,0.077,1.385c1.456,1.103,2.722,2.458,3.768,4.004c2.188,1.256,4.829,2.003,7.683,2.003
			c4.741,0,8.915-2.028,11.345-5.099c0.108-0.749,0.18-1.512,0.18-2.293C74.178,38.193,71.087,33.324,66.746,31.404z"/>
	</g>
	<path fill="#FFFFFF" d="M42.255,26.598c4.406,0,7.982,3.579,7.982,7.989c0,4.405-3.577,7.981-7.982,7.981
		c-4.413,0-7.986-3.576-7.986-7.981C34.269,30.177,37.842,26.598,42.255,26.598"/>
	<path fill="#FFFFFF" d="M47.328,45.201c5.281,2.335,9.041,8.257,9.041,15.216c0,0.949-0.087,1.878-0.218,2.788
		c-2.958,3.734-8.034,6.202-13.801,6.202c-5.764,0-10.841-2.467-13.799-6.202c-0.133-0.91-0.219-1.839-0.219-2.788
		c0-6.934,3.732-12.837,8.983-15.194l5,5.86L47.328,45.201"/>
</g>
<g>
	<defs>
		<rect id="SVGID_1_" x="120.464" y="2.238" width="91" height="78.026"/>
	</defs>
	<clipPath id="SVGID_2_">
		<use xlink:href="#SVGID_1_"  overflow="visible"/>
	</clipPath>
	<path clip-path="url(#SVGID_2_)" fill="#FFFFFF" d="M209.461,15.208h-31.336l-3.265-4.355c-0.665-0.885-2.1-1.603-3.207-1.603
		h-1.013v4.508h1.586c1.102,0,2.003,0.902,2.003,2.004v0.876c0,1.103-0.902,2.003-2.003,2.003h-12.522
		c-1.103,0-2.004-0.9-2.004-2.003v-0.876c0-1.102,0.901-2.004,2.004-2.004h1.586V9.25h-1.398c-1.106,0-2.542,0.718-3.206,1.603
		l-3.266,4.355h-30.952c-1.107,0-2.004,0.896-2.004,2.003V78.26c0,1.107,0.897,2.004,2.004,2.004h86.993
		c1.106,0,2.003-0.897,2.003-2.004V17.211C211.464,16.105,210.567,15.208,209.461,15.208 M206.037,72.53h-80.144V23.776h80.144
		V72.53z"/>
	<path clip-path="url(#SVGID_2_)" fill="#FFFFFF" d="M163.794,2.238c-0.551,0-1.002,0.451-1.002,1.001v12.021
		c0,0.551,0.451,1.001,1.002,1.001h4.341c0.551,0,1.001-0.45,1.001-1.001V3.239c0-0.551-0.451-1.001-1.001-1.001H163.794z
		 M165.965,6.565c-0.765,0-1.384-0.62-1.384-1.385c0-0.764,0.619-1.384,1.384-1.384c0.764,0,1.385,0.62,1.385,1.384
		C167.35,5.945,166.729,6.565,165.965,6.565"/>
	<path clip-path="url(#SVGID_2_)" fill="#FFFFFF" d="M150.511,49.517c0,0-0.22-0.053-0.639-0.124
		c-0.364,1.27-2.668,2.251-5.462,2.251c-2.699,0-4.942-0.914-5.421-2.122c-10.421,2.568-9.663,12.266-9.663,12.266
		c15.242,4.679,30.865,0,30.865,0S160.951,52.078,150.511,49.517"/>
	<path clip-path="url(#SVGID_2_)" fill="#FFFFFF" d="M151.871,40.74c0-6.094-3.184-8.302-7.111-8.302
		c-3.929,0-7.113,2.208-7.113,8.302c0,4.584,3.184,8.301,7.113,8.301C148.688,49.041,151.871,45.325,151.871,40.74"/>
	<rect x="170.397" y="31.457" clip-path="url(#SVGID_2_)" fill="#FFFFFF" width="29.552" height="4.175"/>
	<rect x="170.397" y="40.583" clip-path="url(#SVGID_2_)" fill="#FFFFFF" width="29.552" height="4.175"/>
	<rect x="170.397" y="49.709" clip-path="url(#SVGID_2_)" fill="#FFFFFF" width="29.552" height="4.174"/>
	<rect x="170.397" y="58.835" clip-path="url(#SVGID_2_)" fill="#FFFFFF" width="20.035" height="4.175"/>
</g>
<g>
	<defs>
		<rect id="SVGID_3_" x="247.068" y="2.388" width="84" height="80.409"/>
	</defs>
	<clipPath id="SVGID_4_">
		<use xlink:href="#SVGID_3_"  overflow="visible"/>
	</clipPath>
	<path clip-path="url(#SVGID_4_)" fill="#FFFFFF" d="M257.143,32.719l5.926-5.926c0.108,0.098,0.232,0.168,0.333,0.273
		c3.291,3.29,3.291,8.623,0,11.913L257.143,32.719z"/>
	<path clip-path="url(#SVGID_4_)" fill="#FFFFFF" d="M257.143,32.719l5.926-5.926c0.108,0.098,0.232,0.168,0.333,0.273
		c3.291,3.29,3.291,8.623,0,11.913L257.143,32.719z"/>
	<path clip-path="url(#SVGID_4_)" fill="#FFFFFF" d="M278.583,11.281l-5.926,5.925c0.096,0.108,0.168,0.232,0.272,0.335
		c3.291,3.29,8.624,3.29,11.914,0L278.583,11.281z"/>
	<path clip-path="url(#SVGID_4_)" fill="#FFFFFF" d="M301.368,71.693l5.925-5.925c-0.095-0.107-0.166-0.23-0.271-0.333
		c-3.289-3.291-8.624-3.291-11.915,0L301.368,71.693z"/>
	<path clip-path="url(#SVGID_4_)" fill="#FFFFFF" d="M322.808,50.253l-5.927,5.928c-0.108-0.095-0.231-0.168-0.334-0.273
		c-3.289-3.289-3.289-8.622,0-11.913L322.808,50.253z"/>
	<path clip-path="url(#SVGID_4_)" fill="#FFFFFF" d="M254.329,30.226c2.424,18.061,13.74,23.587,23.724,28.466
		c8.299,4.054,15.467,7.556,18.678,17.384l0.256,0.79l3.587,3.584l26.437-26.434l-0.544-1.951
		c-3.838-13.78-13.904-18.728-22.787-23.092c-9.437-4.637-17.583-8.644-19.815-22.024l-0.179-1.091l-3.448-3.468L254.1,28.522
		L254.329,30.226z M304.968,37.405c6.253,3.286,11.499,7.006,14.21,14.627l-17.599,17.597c-2.486-5-5.987-8.471-9.825-11.188
		c2.93-0.835,5.771-2.425,8.17-4.818C304.531,49.011,306.217,42.773,304.968,37.405 M295.897,34.113l2.468-2.47l1.914,1.914
		l-2.3,2.299c1.237,1.38,2.072,3.085,2.28,4.36l-3.417,2.245c-0.266-1.377-0.908-3.036-2.177-4.306
		c-1.111-1.112-2.406-1.343-3.374-0.375c-0.92,0.919-0.873,2.125-0.035,4.174c1.219,2.961,1.435,5.595-0.913,7.943
		c-2.129,2.129-5.009,2.586-7.605,1.006l-2.299,2.3l-1.914-1.914l2.13-2.129c-1.235-1.38-1.775-2.597-2.032-3.63l3.301-2.168
		c0.238,0.776,0.583,2.231,1.988,3.636c1.27,1.27,2.355,1.001,3.034,0.324c0.799-0.8,0.621-1.989-0.262-4.424
		c-1.308-3.34-0.914-5.607,1.263-7.786C290.1,32.958,293.168,32.351,295.897,34.113 M278.463,13.979
		c2.004,5.983,5.265,10.154,9.057,13.353c-3.174,0.763-6.282,2.429-8.868,5.02c-4.593,4.589-6.286,10.792-5.063,16.149
		c-5.856-3.554-10.449-8.212-12.118-17.529L278.463,13.979z"/>
	<path clip-path="url(#SVGID_4_)" fill="#FFFFFF" d="M328.793,20.779c3.411,7.446,2.852,15.535-0.795,21.336l-0.321-0.705
		c1.259-3.765,1.097-8.243-0.83-12.444c-3.652-7.973-11.667-10.25-20.055-9.497l-4.254-10.752
		C311.999,4.38,323.753,9.782,328.793,20.779"/>
	<polygon clip-path="url(#SVGID_4_)" fill="#FFFFFF" points="306.979,2.602 292.884,13.837 307.295,24.666 	"/>
	<path clip-path="url(#SVGID_4_)" fill="#FFFFFF" d="M249.342,64.619c-3.412-7.445-2.851-15.535,0.796-21.334l0.321,0.704
		c-1.259,3.767-1.098,8.244,0.829,12.446c3.653,7.972,11.667,10.25,20.056,9.497l4.254,10.751
		C266.136,81.019,254.381,75.616,249.342,64.619"/>
	<polygon clip-path="url(#SVGID_4_)" fill="#FFFFFF" points="271.156,82.797 285.25,71.563 270.84,60.733 	"/>
</g>
<g>
	<defs>
		<rect id="SVGID_5_" x="386.87" y="2.646" width="10" height="9.926"/>
	</defs>
	<clipPath id="SVGID_6_">
		<use xlink:href="#SVGID_5_"  overflow="visible"/>
	</clipPath>
	<path clip-path="url(#SVGID_6_)" fill="#F2BF3F" d="M392.181,6.625c0.291,0.133,0.66,0.381,0.806,1.111
		c0.153,0.766,0.854,1.772,1.014,2.768c0.082,0.511,0.121,1.707-0.72,1.982c-0.842,0.275-1.213-0.169-2.572-0.614
		c-1.204-0.394-2.081-0.184-2.85-0.811c-0.713-0.764,0.183-1.938,0.398-2.262C388.584,8.308,390.938,6.058,392.181,6.625"/>
	<path clip-path="url(#SVGID_6_)" fill="#F2BF3F" d="M389.448,5.983c-0.079,1.356-0.516,2.136-1.492,1.988
		c-0.892-0.135-1.265-1.071-1.005-2.197C387.339,4.086,389.599,3.373,389.448,5.983"/>
	<path clip-path="url(#SVGID_6_)" fill="#F2BF3F" d="M391.989,5.382c0.62-1.305,0.576-2.591-0.823-2.728
		c-1.098-0.107-1.382,0.95-1.395,2.039C389.752,6.159,391.32,6.789,391.989,5.382"/>
	<path clip-path="url(#SVGID_6_)" fill="#F2BF3F" d="M394.201,6.646c1.24-0.558,1.479-2.689,0.669-3.106
		c-1.04-0.518-1.917,0.61-2.287,1.672C392.168,6.402,392.961,7.204,394.201,6.646"/>
	<path clip-path="url(#SVGID_6_)" fill="#F2BF3F" d="M395.69,6.282c-1.611,0.843-2.574,2.411-1.087,3.118
		c0.718,0.341,1.585,0.077,2.008-1.191C397.068,6.838,397.012,5.591,395.69,6.282"/>
</g>
<polygon fill-rule="evenodd" clip-rule="evenodd" fill="#FFFFFF" points="375.481,35.518 371.596,31.632 367.71,35.518 
	365.096,32.904 368.981,29.018 365.096,25.132 367.71,22.518 371.596,26.404 375.481,22.518 378.096,25.132 374.21,29.018 
	378.096,32.904 "/>
<polygon fill-rule="evenodd" clip-rule="evenodd" fill="#F2BF3F" points="395.672,34.586 391.786,30.7 387.9,34.586 385.287,31.972 
	389.172,28.086 385.286,24.2 387.9,21.586 391.786,25.472 395.672,21.586 398.287,24.2 394.4,28.086 398.287,31.972 "/>
</svg>
