<?xml version="1.0" encoding="utf-8"?>
<!-- Generator: Adobe Illustrator 16.0.0, SVG Export Plug-In . SVG Version: 6.00 Build 0)  -->
<!DOCTYPE svg PUBLIC "-//W3C//DTD SVG 1.1//EN" "http://www.w3.org/Graphics/SVG/1.1/DTD/svg11.dtd">
<svg version="1.1" id="Layer_1" xmlns="http://www.w3.org/2000/svg" xmlns:xlink="http://www.w3.org/1999/xlink" x="0px" y="0px"
	 width="768px" height="922px" viewBox="0 0 768 922" enable-background="new 0 0 768 922" xml:space="preserve">
<polygon fill="#CABFB5" points="487.005,181.357 477.831,222.02 458.438,217.7 450.883,229.899 454.204,211.818 425.835,205.2 
	430.406,185.477 333.912,162.741 336.821,150.84 292.821,140.013 291.101,139.583 320.888,22.825 414.453,45.29 511.82,67.486 
	512.55,67.733 "/>
<polygon fill="none" stroke="#FFFFFF" stroke-miterlimit="10" points="487.005,181.357 477.831,222.02 458.438,217.7 
	450.883,229.899 454.204,211.818 425.835,205.2 430.406,185.477 333.912,162.741 336.821,150.84 292.821,140.013 291.101,139.583 
	320.888,22.825 414.453,45.29 511.82,67.486 512.55,67.733 "/>
<polygon fill="#CABFB5" points="741.016,116.248 761.193,120.209 739.303,233.975 719.455,335.101 614.916,313.65 566.002,302.81 
	551.801,299.847 551.568,235.449 559.73,197.4 523.448,189.444 487.006,181.357 512.551,67.733 585.188,83.836 677.698,103.443 "/>
<polygon fill="none" stroke="#FFFFFF" stroke-miterlimit="10" points="741.016,116.248 761.193,120.209 739.303,233.975 
	719.455,335.101 614.916,313.65 566.002,302.81 551.801,299.847 551.568,235.449 559.73,197.4 523.448,189.444 487.006,181.357 
	512.551,67.733 585.188,83.836 677.698,103.443 "/>
<polygon fill="#CABFB5" points="292.821,140.013 280.023,189.987 277.854,189.501 263.058,248.279 272.804,250.631 268.835,272.427 
	271.473,275.701 265.516,292.952 257.088,292.175 240.479,292.591 224.951,297.322 218.927,294.612 216.661,316.92 209.68,324.861 
	192.726,330.822 182.137,328.077 186.25,310.995 190.473,296.159 198.664,265.179 241.374,100.03 265.051,8.513 317.869,22.016 
	320.888,22.825 291.101,139.582 "/>
<polygon fill="none" stroke="#FFFFFF" stroke-miterlimit="10" points="292.821,140.013 280.023,189.987 277.854,189.501 
	263.058,248.279 272.804,250.631 268.835,272.427 271.473,275.701 265.516,292.952 257.088,292.175 240.479,292.591 
	224.951,297.322 218.927,294.612 216.661,316.92 209.68,324.861 192.726,330.822 182.137,328.077 186.25,310.995 190.473,296.159 
	198.664,265.179 241.374,100.03 265.051,8.513 317.869,22.016 320.888,22.825 291.101,139.582 "/>
<polygon fill="#CABFB5" points="566.001,302.81 562.846,334.938 556.87,347.76 554.965,364.252 543.674,377.268 536.389,411.85 
	476.124,398.855 499.861,295.31 521.276,195.408 523.448,189.444 559.73,197.4 551.569,235.449 551.8,299.847 "/>
<polygon fill="none" stroke="#FFFFFF" stroke-miterlimit="10" points="566.001,302.81 562.846,334.938 556.87,347.76 
	554.965,364.252 543.674,377.268 536.389,411.85 476.124,398.855 499.861,295.31 521.276,195.408 523.448,189.444 559.73,197.4 
	551.569,235.449 551.8,299.847 "/>
<polygon fill="#CABFB5" points="523.449,189.444 521.276,195.408 499.861,295.309 476.125,398.854 412.783,384.419 372.517,383.518 
	380.435,371.034 380.485,354.252 399.762,338.935 408.406,339.01 413.647,328.384 413.949,314.493 420.767,295.426 416.58,284.931 
	450.883,229.899 458.438,217.7 477.831,222.02 487.006,181.357 "/>
<polygon fill="none" stroke="#FFFFFF" stroke-miterlimit="10" points="523.449,189.444 521.276,195.408 499.861,295.309 
	476.125,398.854 412.783,384.419 372.517,383.518 380.435,371.034 380.485,354.252 399.762,338.935 408.406,339.01 413.647,328.384 
	413.949,314.493 420.767,295.426 416.58,284.931 450.883,229.899 458.438,217.7 477.831,222.02 487.006,181.357 "/>
<polygon fill="#CABFB5" points="450.883,229.899 416.58,284.932 334.537,265.858 272.804,250.63 263.059,248.278 277.854,189.501 
	280.023,189.986 292.821,140.014 336.822,150.839 333.912,162.741 430.406,185.478 425.836,205.199 454.204,211.817 "/>
<polygon fill="none" stroke="#FFFFFF" stroke-miterlimit="10" points="450.883,229.899 416.58,284.932 334.537,265.858 
	272.804,250.63 263.059,248.278 277.854,189.501 280.023,189.986 292.821,140.014 336.822,150.839 333.912,162.741 430.406,185.478 
	425.836,205.199 454.204,211.817 "/>
<polygon fill="#CABFB5" points="719.455,335.102 714.776,359.282 706.705,400.936 687.438,500.164 603.997,483.69 536.389,411.85 
	543.675,377.268 554.965,364.251 556.869,347.76 562.846,334.938 566.001,302.81 614.915,313.649 "/>
<polygon fill="none" stroke="#FFFFFF" stroke-miterlimit="10" points="719.455,335.102 714.776,359.282 706.705,400.936 
	687.438,500.164 603.997,483.69 536.389,411.85 543.675,377.268 554.965,364.251 556.869,347.76 562.846,334.938 566.001,302.81 
	614.915,313.649 "/>
<polygon fill="#CABFB5" points="416.58,284.931 420.767,295.426 413.949,314.493 413.647,328.384 408.406,339.01 399.762,338.935 
	380.485,354.252 380.435,371.034 372.517,383.519 364.25,383.957 287.382,365.459 288.386,361.209 264.74,322.132 277.573,285.132 
	265.517,292.952 271.473,275.701 268.835,272.426 272.804,250.63 334.537,265.858 "/>
<polygon fill="none" stroke="#FFFFFF" stroke-miterlimit="10" points="416.58,284.931 420.767,295.426 413.949,314.493 
	413.647,328.384 408.406,339.01 399.762,338.935 380.485,354.252 380.435,371.034 372.517,383.519 364.25,383.957 287.382,365.459 
	288.386,361.209 264.74,322.132 277.573,285.132 265.517,292.952 271.473,275.701 268.835,272.426 272.804,250.63 334.537,265.858 
	"/>
<polygon fill="#CABFB5" points="287.381,365.459 272.121,361.861 261.128,374.804 258.581,385.253 268.339,387.554 255.734,437.09 
	233.934,431.694 222.305,414.194 226.276,391.084 221.314,390.162 226.314,364.761 236.861,363.067 239.432,352.533 
	218.875,347.088 221.024,334.435 209.68,324.861 232.292,320.127 257.088,292.175 265.517,292.952 277.572,285.133 264.739,322.133 
	288.386,361.209 "/>
<polygon fill="none" stroke="#FFFFFF" stroke-miterlimit="10" points="287.381,365.459 272.121,361.861 261.128,374.804 
	258.581,385.253 268.339,387.554 255.734,437.09 233.934,431.694 222.305,414.194 226.276,391.084 221.314,390.162 226.314,364.761 
	236.861,363.067 239.432,352.533 218.875,347.088 221.024,334.435 209.68,324.861 232.292,320.127 257.088,292.175 265.517,292.952 
	277.572,285.133 264.739,322.133 288.386,361.209 "/>
<polygon fill="#CABFB5" points="209.68,324.861 216.661,316.92 218.927,294.613 224.951,297.322 240.479,292.591 257.088,292.175 
	232.293,320.127 "/>
<polygon fill="none" stroke="#FFFFFF" stroke-miterlimit="10" points="209.68,324.861 216.661,316.92 218.927,294.613 
	224.951,297.322 240.479,292.591 257.088,292.175 232.293,320.127 "/>
<polygon fill="#CABFB5" points="218.875,347.088 201.558,339.289 180.655,334.077 182.138,328.077 192.727,330.822 209.681,324.86 
	221.024,334.436 "/>
<polygon fill="none" stroke="#FFFFFF" stroke-miterlimit="10" points="218.875,347.088 201.558,339.289 180.655,334.077 
	182.138,328.077 192.727,330.822 209.681,324.86 221.024,334.436 "/>
<polygon fill="#CABFB5" points="476.125,398.854 536.389,411.85 603.998,483.69 589.468,555.4 510.565,539.092 480.939,677.135 
	460.815,773.298 370.614,637.493 397.238,520.064 363.478,455.732 331.407,394.806 333.54,385.561 364.25,383.958 372.517,383.518 
	412.782,384.418 "/>
<polygon fill="none" stroke="#FFFFFF" stroke-miterlimit="10" points="476.125,398.854 536.389,411.85 603.998,483.69 
	589.468,555.4 510.565,539.092 480.939,677.135 460.815,773.298 370.614,637.493 397.238,520.064 363.478,455.732 331.407,394.806 
	333.54,385.561 364.25,383.958 372.517,383.518 412.782,384.418 "/>
<polygon fill="#CABFB5" points="218.875,347.088 239.432,352.533 236.86,363.066 226.314,364.761 221.314,390.163 226.276,391.084 
	222.306,414.194 205.493,388.998 183.97,356.572 177.579,346.893 179.428,339.217 180.655,334.077 201.558,339.289 "/>
<polygon fill="none" stroke="#FFFFFF" stroke-miterlimit="10" points="218.875,347.088 239.432,352.533 236.86,363.066 
	226.314,364.761 221.314,390.163 226.276,391.084 222.306,414.194 205.493,388.998 183.97,356.572 177.579,346.893 179.428,339.217 
	180.655,334.077 201.558,339.289 "/>
<polygon fill="#CABFB5" points="364.25,383.957 333.54,385.56 331.407,394.805 363.478,455.732 290.025,508.047 283.343,506.133 
	233.933,431.694 255.735,437.09 268.339,387.554 258.581,385.253 261.129,374.804 272.121,361.861 287.382,365.459 "/>
<polygon fill="none" stroke="#FFFFFF" stroke-miterlimit="10" points="364.25,383.957 333.54,385.56 331.407,394.805 
	363.478,455.732 290.025,508.047 283.343,506.133 233.933,431.694 255.735,437.09 268.339,387.554 258.581,385.253 261.129,374.804 
	272.121,361.861 287.382,365.459 "/>
<polygon fill="#CABFB5" points="687.438,500.163 685.135,512.144 675.775,560.829 663.559,623.174 650.355,692.546 646.952,710.595 
	582.885,697.947 583.104,696.853 495.18,678.839 480.939,677.134 510.566,539.091 589.468,555.401 603.997,483.69 "/>
<polygon fill="none" stroke="#FFFFFF" stroke-miterlimit="10" points="687.438,500.163 685.135,512.144 675.775,560.829 
	663.559,623.174 650.355,692.546 646.952,710.595 582.885,697.947 583.104,696.853 495.18,678.839 480.939,677.134 510.566,539.091 
	589.468,555.401 603.997,483.69 "/>
<polygon fill="#CABFB5" points="370.614,637.493 324.254,567.621 283.343,506.134 290.025,508.048 363.478,455.732 397.238,520.064 
	"/>
<polygon fill="none" stroke="#FFFFFF" stroke-miterlimit="10" points="370.614,637.493 324.254,567.621 283.343,506.134 
	290.025,508.048 363.478,455.732 397.238,520.064 "/>
<polygon fill="#CABFB5" points="646.953,710.595 633.213,785.239 619.495,802.839 611.979,802.609 602.445,785.304 578.803,780.694 
	566.103,784.899 565.448,812.667 560.221,851.911 563.451,874.734 562.134,894.018 553.628,899.52 552.526,911.29 478.28,799.645 
	460.815,773.297 480.939,677.134 495.18,678.839 583.104,696.853 582.885,697.947 "/>
<polygon fill="none" stroke="#FFFFFF" stroke-miterlimit="10" points="646.953,710.595 633.213,785.239 619.495,802.839 
	611.979,802.609 602.445,785.304 578.803,780.694 566.103,784.899 565.448,812.667 560.221,851.911 563.451,874.734 
	562.134,894.018 553.628,899.52 552.526,911.29 478.28,799.645 460.815,773.297 480.939,677.134 495.18,678.839 583.104,696.853 
	582.885,697.947 "/>
<g>
	<defs>
		<rect id="SVGID_1_" width="768" height="922"/>
	</defs>
	<clipPath id="SVGID_2_">
		<use xlink:href="#SVGID_1_"  overflow="visible"/>
	</clipPath>
	
		<circle clip-path="url(#SVGID_2_)" fill="none" stroke="#000000" stroke-width="7.34" stroke-miterlimit="10" stroke-dasharray="22.81,11.405" cx="236.027" cy="355.483" r="70.789"/>
	<polygon clip-path="url(#SVGID_2_)" fill="#CABFB5" points="266.19,727.244 234.709,719.822 212.033,746.521 206.777,768.077 
		226.908,772.823 200.906,875.009 155.932,863.879 131.947,827.779 140.138,780.106 129.903,778.203 140.217,725.806 
		161.972,722.31 167.276,700.579 124.871,689.349 129.304,663.246 105.902,643.495 152.549,633.73 203.699,576.068 221.086,577.671 
		245.956,561.54 219.482,637.867 268.262,718.478 	"/>
	<polygon clip-path="url(#SVGID_2_)" fill="none" stroke="#FFFFFF" stroke-miterlimit="10" points="266.19,727.244 234.709,719.822 
		212.033,746.521 206.777,768.077 226.908,772.823 200.906,875.009 155.932,863.879 131.947,827.779 140.138,780.106 
		129.903,778.203 140.217,725.806 161.972,722.31 167.276,700.579 124.871,689.349 129.304,663.246 105.902,643.495 152.549,633.73 
		203.699,576.068 221.086,577.671 245.956,561.54 219.482,637.867 268.262,718.478 	"/>
	<polygon clip-path="url(#SVGID_2_)" fill="#CABFB5" points="105.902,643.495 120.304,627.114 124.977,581.097 137.404,586.687 
		169.437,576.927 203.699,576.068 152.549,633.73 	"/>
	<polygon clip-path="url(#SVGID_2_)" fill="none" stroke="#FFFFFF" stroke-miterlimit="10" points="105.902,643.495 
		120.304,627.114 124.977,581.097 137.404,586.687 169.437,576.927 203.699,576.068 152.549,633.73 	"/>
	<polygon clip-path="url(#SVGID_2_)" fill="#CABFB5" points="124.871,689.348 89.147,673.257 46.026,662.508 49.085,650.131 
		70.928,655.793 105.902,643.495 129.304,663.246 	"/>
	<polygon clip-path="url(#SVGID_2_)" fill="none" stroke="#FFFFFF" stroke-miterlimit="10" points="124.871,689.348 89.147,673.257 
		46.026,662.508 49.085,650.131 70.928,655.793 105.902,643.495 129.304,663.246 	"/>
	<polygon clip-path="url(#SVGID_2_)" fill="#CABFB5" points="124.871,689.348 167.276,700.58 161.973,722.309 140.217,725.805 
		129.903,778.204 140.138,780.105 131.947,827.778 97.263,775.801 52.864,708.912 39.681,688.942 43.495,673.109 46.026,662.508 
		89.147,673.257 	"/>
	<polygon clip-path="url(#SVGID_2_)" fill="none" stroke="#FFFFFF" stroke-miterlimit="10" points="124.871,689.348 167.276,700.58 
		161.973,722.309 140.217,725.805 129.903,778.204 140.138,780.105 131.947,827.778 97.263,775.801 52.864,708.912 39.681,688.942 
		43.495,673.109 46.026,662.508 89.147,673.257 	"/>
	<path clip-path="url(#SVGID_2_)" fill="#CABFB5" d="M49.084,650.131l21.843,5.661l34.974-12.297l14.402-16.381l4.673-46.018
		l12.427,5.589l32.033-9.759l34.263-0.859l17.386,1.604l10.45-30.266c-15.986-5.082-33.004-7.845-50.673-7.845
		c-44.523,0-84.947,17.447-114.898,45.834l-8.396,29.497L49.084,650.131z"/>
	<path clip-path="url(#SVGID_2_)" fill="none" stroke="#FFFFFF" stroke-miterlimit="10" d="M49.084,650.131l21.843,5.661
		l34.974-12.297l14.402-16.381l4.673-46.018l12.427,5.589l32.033-9.759l34.263-0.859l17.386,1.604l10.45-30.266
		c-15.986-5.082-33.004-7.845-50.673-7.845c-44.523,0-84.947,17.447-114.898,45.834l-8.396,29.497L49.084,650.131z"/>
	<path clip-path="url(#SVGID_2_)" fill="#CABFB5" d="M245.956,561.54l-26.473,76.326l48.78,80.61l-2.073,8.768l77.122,18.56
		c3.015-12.56,4.655-25.654,4.655-39.139c0-74.62-48.92-137.797-116.432-159.259l-10.449,30.265L245.956,561.54z"/>
	<path clip-path="url(#SVGID_2_)" fill="none" stroke="#FFFFFF" stroke-miterlimit="10" d="M245.956,561.54l-26.473,76.326
		l48.78,80.61l-2.073,8.768l77.122,18.56c3.015-12.56,4.655-25.654,4.655-39.139c0-74.62-48.92-137.797-116.432-159.259
		l-10.449,30.265L245.956,561.54z"/>
	<path clip-path="url(#SVGID_2_)" fill="#CABFB5" d="M234.709,719.822l-22.676,26.699l-5.256,21.555l20.13,4.746l-25.349,99.626
		c69.469-8.588,125.7-59.776,141.754-126.645l-77.122-18.561L234.709,719.822z"/>
	<path clip-path="url(#SVGID_2_)" fill="none" stroke="#FFFFFF" stroke-miterlimit="10" d="M234.709,719.822l-22.676,26.699
		l-5.256,21.555l20.13,4.746l-25.349,99.626c69.469-8.588,125.7-59.776,141.754-126.645l-77.122-18.561L234.709,719.822z"/>
	
		<circle clip-path="url(#SVGID_2_)" fill="none" stroke="#000000" stroke-width="7.34" stroke-miterlimit="10" cx="180.863" cy="706.665" r="167.104"/>
</g>
<polygon points="625.623,211.001 617.833,211.001 617.833,193.184 625.623,193.184 625.623,196.047 621.048,196.047 
	621.048,200.289 625.292,200.289 625.292,203.166 621.048,203.166 621.048,208.102 625.623,208.102 "/>
<polygon points="627.536,211.001 627.536,193.184 630.751,193.184 630.751,208.102 635.208,208.102 635.208,211.001 "/>
<polygon points="647.304,211.001 643.875,211.001 641.038,203.385 639.749,204.712 639.749,211.001 636.533,211.001 
	636.533,193.184 639.749,193.184 639.749,202.02 640.872,199.351 643.816,193.184 647.256,193.184 643.261,200.897 "/>
<g>
	<defs>
		<rect id="SVGID_3_" width="768" height="922"/>
	</defs>
	<clipPath id="SVGID_4_">
		<use xlink:href="#SVGID_3_"  overflow="visible"/>
	</clipPath>
	<path clip-path="url(#SVGID_4_)" d="M659.69,202.068c0,2.95-0.536,5.216-1.608,6.801c-1.071,1.584-2.604,2.376-4.599,2.376
		c-2.002,0-3.538-0.79-4.61-2.37c-1.071-1.58-1.607-3.857-1.607-6.831c0-2.95,0.536-5.21,1.607-6.783
		c1.072-1.572,2.617-2.358,4.635-2.358c1.993,0,3.523,0.79,4.587,2.371C659.158,196.854,659.69,199.119,659.69,202.068
		 M650.552,202.068c0,2.031,0.248,3.579,0.745,4.644c0.496,1.064,1.226,1.596,2.187,1.596c1.939,0,2.908-2.08,2.908-6.24
		s-0.961-6.24-2.884-6.24c-0.977,0-1.715,0.531-2.211,1.591C650.8,198.479,650.552,200.029,650.552,202.068"/>
	<polygon clip-path="url(#SVGID_4_)" points="360.575,114.281 357.359,114.281 357.359,106.469 353.115,106.469 353.115,114.281 
		349.9,114.281 349.9,96.463 353.115,96.463 353.115,103.544 357.359,103.544 357.359,96.463 360.575,96.463 	"/>
	<path clip-path="url(#SVGID_4_)" d="M373.607,96.463v11.53c0,2.12-0.466,3.739-1.396,4.856c-0.929,1.117-2.273,1.676-4.031,1.676
		c-1.718,0-3.026-0.554-3.925-1.664c-0.898-1.108-1.347-2.748-1.347-4.917V96.463h3.192v11.725c0,2.267,0.729,3.4,2.187,3.4
		c0.677,0,1.202-0.289,1.572-0.865c0.37-0.577,0.556-1.397,0.556-2.462V96.463H373.607z"/>
	<path clip-path="url(#SVGID_4_)" d="M382.121,114.281l-3.287-15.173h-0.13c0.149,1.17,0.225,2.242,0.225,3.217v11.956h-2.979
		V96.463h4.942l2.955,14.004h0.094l2.932-14.004h5.013v17.818h-3.05v-12.078c0-0.999,0.055-2.023,0.165-3.071h-0.095l-3.274,15.149
		H382.121z"/>
	<path clip-path="url(#SVGID_4_)" d="M394.3,96.463h4.409c1.797,0,3.105,0.36,3.925,1.079c0.819,0.719,1.229,1.862,1.229,3.431
		c0,1.031-0.217,1.895-0.65,2.59c-0.434,0.694-1.024,1.115-1.773,1.261v0.122c0.978,0.252,1.683,0.723,2.115,1.413
		c0.435,0.691,0.651,1.609,0.651,2.755c0,1.616-0.42,2.882-1.259,3.796c-0.84,0.914-1.988,1.371-3.446,1.371H394.3V96.463z
		 M397.326,103.629h1.479c0.677,0,1.153-0.187,1.43-0.56c0.275-0.374,0.413-0.93,0.413-1.67c0-0.739-0.157-1.269-0.473-1.59
		s-0.812-0.482-1.489-0.482h-1.359V103.629z M397.326,106.396v4.985h1.619c0.67,0,1.168-0.212,1.495-0.634s0.491-1.077,0.491-1.962
		c0-1.593-0.678-2.389-2.033-2.389H397.326z"/>
	<path clip-path="url(#SVGID_4_)" d="M417.786,105.348c0,2.95-0.536,5.216-1.608,6.801c-1.071,1.584-2.604,2.376-4.599,2.376
		c-2.002,0-3.538-0.79-4.61-2.37c-1.071-1.58-1.607-3.857-1.607-6.831c0-2.95,0.536-5.21,1.607-6.783
		c1.072-1.572,2.617-2.358,4.635-2.358c1.993,0,3.523,0.79,4.587,2.371C417.254,100.134,417.786,102.399,417.786,105.348
		 M408.647,105.348c0,2.031,0.248,3.579,0.745,4.644c0.496,1.064,1.226,1.596,2.187,1.596c1.939,0,2.908-2.08,2.908-6.24
		s-0.961-6.24-2.884-6.24c-0.977,0-1.715,0.531-2.211,1.591C408.896,101.759,408.647,103.309,408.647,105.348"/>
	<polygon clip-path="url(#SVGID_4_)" points="419.665,114.281 419.665,96.463 422.88,96.463 422.88,111.381 427.337,111.381 
		427.337,114.281 	"/>
	<path clip-path="url(#SVGID_4_)" d="M439.658,105.202c0,2.941-0.581,5.19-1.744,6.745c-1.162,1.557-2.835,2.334-5.019,2.334h-4.231
		V96.463h4.622c2.011,0,3.574,0.766,4.693,2.297C439.099,100.292,439.658,102.439,439.658,105.202 M436.359,105.299
		c0-3.981-1.063-5.972-3.191-5.972h-1.289v12.054h1.041c1.174,0,2.041-0.506,2.601-1.518
		C436.08,108.852,436.359,107.331,436.359,105.299"/>
	<polygon clip-path="url(#SVGID_4_)" points="446.588,114.281 443.384,114.281 443.384,99.376 440.074,99.376 440.074,96.463 
		449.898,96.463 449.898,99.376 446.588,99.376 	"/>
	<path clip-path="url(#SVGID_4_)" d="M318.119,222.587c0,1.894-0.464,3.346-1.39,4.358c-0.926,1.011-2.264,1.517-4.013,1.517h-0.804
		v6.459h-3.216v-17.818h4.386C316.44,217.103,318.119,218.931,318.119,222.587 M311.912,225.586h0.615
		c0.788,0,1.375-0.224,1.761-0.67c0.386-0.447,0.579-1.179,0.579-2.194c0-0.934-0.177-1.627-0.532-2.078
		c-0.354-0.451-0.902-0.677-1.643-0.677h-0.78V225.586z"/>
	<polygon clip-path="url(#SVGID_4_)" points="327.299,234.921 319.508,234.921 319.508,217.104 327.299,217.104 327.299,219.967 
		322.724,219.967 322.724,224.208 326.968,224.208 326.968,227.085 322.724,227.085 322.724,232.021 327.299,232.021 	"/>
	<path clip-path="url(#SVGID_4_)" d="M332.428,227.987v6.935h-3.216v-17.819h4.209c1.781,0,3.095,0.435,3.943,1.304
		c0.847,0.87,1.271,2.199,1.271,3.986c0,2.251-0.738,3.823-2.211,4.717l3.321,7.812h-3.44l-2.731-6.935H332.428z M332.428,225.135
		h0.827c0.757,0,1.301-0.221,1.632-0.664c0.331-0.443,0.496-1.103,0.496-1.981c0-0.91-0.175-1.558-0.526-1.943
		c-0.35-0.386-0.892-0.579-1.625-0.579h-0.804V225.135z"/>
	<path clip-path="url(#SVGID_4_)" d="M349.012,230.01c0,1.666-0.408,2.941-1.223,3.827c-0.816,0.885-1.992,1.328-3.529,1.328
		c-1.505,0-2.786-0.304-3.842-0.914v-3.278c1.292,0.87,2.478,1.304,3.559,1.304c0.613,0,1.076-0.175,1.389-0.524
		c0.31-0.349,0.466-0.825,0.466-1.426c0-0.593-0.185-1.135-0.554-1.627c-0.371-0.492-0.983-1.038-1.834-1.639
		c-0.741-0.529-1.302-1.034-1.684-1.518c-0.383-0.483-0.678-1.025-0.887-1.627c-0.209-0.601-0.313-1.3-0.313-2.096
		c0-1.527,0.411-2.738,1.235-3.632c0.823-0.893,1.93-1.341,3.317-1.341c1.324,0,2.595,0.383,3.818,1.146l-1.064,2.657
		c-0.379-0.227-0.774-0.431-1.188-0.609c-0.414-0.179-0.857-0.268-1.33-0.268c-0.52,0-0.92,0.176-1.201,0.529
		c-0.28,0.354-0.418,0.835-0.418,1.445c0,0.601,0.166,1.125,0.502,1.572c0.334,0.447,0.92,0.955,1.756,1.524
		c1.127,0.78,1.912,1.576,2.357,2.388C348.789,228.044,349.012,228.97,349.012,230.01"/>
	<polygon clip-path="url(#SVGID_4_)" points="361.253,234.921 358.037,234.921 358.037,227.109 353.793,227.109 353.793,234.921 
		350.578,234.921 350.578,217.104 353.793,217.104 353.793,224.185 358.037,224.185 358.037,217.104 361.253,217.104 	"/>
	<rect x="363.938" y="217.103" clip-path="url(#SVGID_4_)" width="3.026" height="17.818"/>
	<path clip-path="url(#SVGID_4_)" d="M381.768,234.921h-3.925l-5.344-12.907h-0.153c0.196,0.984,0.295,2.04,0.295,3.169v9.738
		h-2.978v-17.818h3.948l5.296,12.773h0.13c-0.15-0.854-0.225-1.87-0.225-3.047v-9.726h2.956V234.921z"/>
	<path clip-path="url(#SVGID_4_)" d="M389.343,225.037h5.285v9.141c-1.498,0.658-3.09,0.987-4.776,0.987
		c-2.01,0-3.557-0.788-4.641-2.364c-1.083-1.577-1.625-3.847-1.625-6.813c0-2.86,0.62-5.098,1.862-6.716
		c1.241-1.616,2.977-2.425,5.206-2.425c1.38,0,2.696,0.366,3.949,1.097l-1.017,2.706c-0.978-0.585-1.892-0.878-2.742-0.878
		c-1.222,0-2.188,0.563-2.902,1.688c-0.714,1.126-1.07,2.659-1.07,4.601c0,1.999,0.258,3.53,0.774,4.595
		c0.517,1.064,1.267,1.596,2.252,1.596c0.521,0,1.049-0.069,1.584-0.207v-4.083h-2.14V225.037z"/>
	<path clip-path="url(#SVGID_4_)" d="M591.579,410.267h-4.021l-1.689-9.335c-0.261-1.276-0.445-2.783-0.556-4.522l-0.095,0.902
		l-0.485,3.668l-1.643,9.287h-4.02l-3.133-17.818h3.156l1.548,10.054c0.15,1.008,0.352,2.589,0.604,4.742
		c0.197-2.178,0.383-3.734,0.556-4.668l1.845-10.128h3.334l1.844,10.128c0.244,1.503,0.438,3.067,0.579,4.692
		c0.276-2.405,0.477-3.993,0.604-4.766l1.501-10.054h3.18L591.579,410.267z"/>
	<polygon clip-path="url(#SVGID_4_)" points="606.539,410.267 603.323,410.267 603.323,402.455 599.079,402.455 599.079,410.267 
		595.864,410.267 595.864,392.449 599.079,392.449 599.079,399.53 603.323,399.53 603.323,392.449 606.539,392.449 	"/>
	<rect x="609.225" y="392.449" clip-path="url(#SVGID_4_)" width="3.026" height="17.818"/>
	<polygon clip-path="url(#SVGID_4_)" points="620.268,410.267 617.063,410.267 617.063,395.362 613.754,395.362 613.754,392.449 
		623.578,392.449 623.578,395.362 620.268,395.362 	"/>
	<polygon clip-path="url(#SVGID_4_)" points="632.587,410.267 624.797,410.267 624.797,392.449 632.587,392.449 632.587,395.313 
		628.012,395.313 628.012,399.554 632.256,399.554 632.256,402.431 628.012,402.431 628.012,407.367 632.587,407.367 	"/>
	<path clip-path="url(#SVGID_4_)" d="M649.299,397.933c0,1.894-0.463,3.346-1.39,4.358c-0.926,1.011-2.264,1.517-4.013,1.517h-0.805
		v6.459h-3.215v-17.818h4.386C647.62,392.449,649.299,394.276,649.299,397.933 M643.092,400.932h0.615
		c0.788,0,1.375-0.224,1.762-0.67c0.386-0.447,0.579-1.179,0.579-2.194c0-0.934-0.178-1.627-0.532-2.078
		c-0.354-0.451-0.902-0.677-1.644-0.677h-0.78V400.932z"/>
	<rect x="650.974" y="392.449" clip-path="url(#SVGID_4_)" width="3.026" height="17.818"/>
	<path clip-path="url(#SVGID_4_)" d="M668.803,410.267h-3.925l-5.345-12.907h-0.152c0.195,0.984,0.295,2.04,0.295,3.169v9.738
		h-2.979v-17.818h3.948l5.296,12.773h0.13c-0.149-0.854-0.225-1.87-0.225-3.047v-9.726h2.956V410.267z"/>
	<polygon clip-path="url(#SVGID_4_)" points="679.001,410.267 671.211,410.267 671.211,392.449 679.001,392.449 679.001,395.313 
		674.426,395.313 674.426,399.554 678.67,399.554 678.67,402.431 674.426,402.431 674.426,407.367 679.001,407.367 	"/>
	<path clip-path="url(#SVGID_4_)" d="M310.61,303.78c-0.922,0-1.649,0.557-2.181,1.669c-0.532,1.114-0.798,2.662-0.798,4.644
		c0,4.127,1.044,6.191,3.132,6.191c0.915,0,1.872-0.3,2.873-0.901v2.949c-0.843,0.577-1.923,0.865-3.239,0.865
		c-1.947,0-3.442-0.798-4.486-2.395c-1.045-1.596-1.567-3.841-1.567-6.733c0-2.893,0.538-5.147,1.614-6.765
		c1.076-1.616,2.571-2.425,4.486-2.425c0.631,0,1.236,0.09,1.815,0.268c0.579,0.179,1.2,0.492,1.862,0.939l-1.064,2.694
		c-0.355-0.252-0.733-0.482-1.135-0.689S311.083,303.78,310.61,303.78"/>
	<polygon clip-path="url(#SVGID_4_)" points="326.076,318.953 322.861,318.953 322.861,311.141 318.617,311.141 318.617,318.953 
		315.401,318.953 315.401,301.135 318.617,301.135 318.617,308.216 322.861,308.216 322.861,301.135 326.076,301.135 	"/>
	<path clip-path="url(#SVGID_4_)" d="M339.107,301.135v11.53c0,2.12-0.465,3.739-1.395,4.856c-0.93,1.117-2.274,1.676-4.031,1.676
		c-1.719,0-3.027-0.554-3.925-1.664c-0.899-1.108-1.348-2.748-1.348-4.917v-11.481h3.192v11.725c0,2.267,0.729,3.4,2.187,3.4
		c0.678,0,1.202-0.289,1.572-0.865c0.371-0.577,0.556-1.398,0.556-2.462v-11.798H339.107z"/>
	<path clip-path="url(#SVGID_4_)" d="M344.664,312.019v6.935h-3.215v-17.819h4.209c1.781,0,3.096,0.435,3.942,1.304
		c0.847,0.87,1.271,2.199,1.271,3.986c0,2.251-0.736,3.823-2.211,4.717l3.322,7.812h-3.439l-2.731-6.935H344.664z M344.664,309.167
		h0.828c0.756,0,1.301-0.221,1.631-0.664c0.332-0.443,0.498-1.103,0.498-1.981c0-0.91-0.176-1.558-0.527-1.943
		c-0.35-0.386-0.893-0.579-1.625-0.579h-0.805V309.167z"/>
	<path clip-path="url(#SVGID_4_)" d="M358.482,303.78c-0.922,0-1.649,0.557-2.182,1.669c-0.531,1.114-0.797,2.662-0.797,4.644
		c0,4.127,1.043,6.191,3.132,6.191c0.914,0,1.872-0.3,2.873-0.901v2.949c-0.843,0.577-1.922,0.865-3.239,0.865
		c-1.947,0-3.442-0.798-4.486-2.395c-1.045-1.596-1.567-3.841-1.567-6.733c0-2.893,0.538-5.147,1.614-6.765
		c1.076-1.616,2.571-2.425,4.486-2.425c0.631,0,1.235,0.09,1.815,0.268c0.58,0.179,1.2,0.492,1.862,0.939l-1.064,2.694
		c-0.354-0.252-0.733-0.482-1.135-0.689S358.956,303.78,358.482,303.78"/>
	<polygon clip-path="url(#SVGID_4_)" points="373.948,318.953 370.732,318.953 370.732,311.141 366.488,311.141 366.488,318.953 
		363.273,318.953 363.273,301.135 366.488,301.135 366.488,308.216 370.732,308.216 370.732,301.135 373.948,301.135 	"/>
	<rect x="376.634" y="301.135" clip-path="url(#SVGID_4_)" width="3.026" height="17.818"/>
	<polygon clip-path="url(#SVGID_4_)" points="382.357,318.953 382.357,301.135 385.572,301.135 385.572,316.053 390.029,316.053 
		390.029,318.953 	"/>
	<polygon clip-path="url(#SVGID_4_)" points="391.355,318.953 391.355,301.135 394.57,301.135 394.57,316.053 399.027,316.053 
		399.027,318.953 	"/>
	<polygon clip-path="url(#SVGID_4_)" points="403.982,368.596 403.982,350.778 407.197,350.778 407.197,365.696 411.654,365.696 
		411.654,368.596 	"/>
	<path clip-path="url(#SVGID_4_)" d="M421.927,368.597l-0.993-4.497h-4.504l-0.993,4.497h-3.216l4.279-17.892h4.362l4.292,17.892
		H421.927z M420.33,361.162l-0.922-4.144c-0.055-0.252-0.179-0.883-0.372-1.895c-0.193-1.011-0.31-1.688-0.349-2.029
		c-0.103,0.699-0.232,1.469-0.391,2.31c-0.157,0.841-0.567,2.76-1.229,5.758H420.33z"/>
	<path clip-path="url(#SVGID_4_)" d="M438.332,368.596h-3.925l-5.345-12.907h-0.152c0.196,0.984,0.295,2.04,0.295,3.169v9.738
		h-2.979v-17.818h3.948l5.296,12.773h0.13c-0.149-0.854-0.225-1.87-0.225-3.047v-9.726h2.956V368.596z"/>
	<path clip-path="url(#SVGID_4_)" d="M451.734,359.517c0,2.941-0.581,5.19-1.744,6.745c-1.162,1.557-2.835,2.334-5.019,2.334h-4.231
		v-17.818h4.622c2.01,0,3.574,0.766,4.693,2.297C451.175,354.607,451.734,356.754,451.734,359.517 M448.436,359.614
		c0-3.981-1.063-5.972-3.191-5.972h-1.289v12.054h1.041c1.174,0,2.041-0.506,2.601-1.518
		C448.156,363.167,448.436,361.646,448.436,359.614"/>
	<polygon clip-path="url(#SVGID_4_)" points="461.324,368.596 453.534,368.596 453.534,350.778 461.324,350.778 461.324,353.642 
		456.749,353.642 456.749,357.883 460.993,357.883 460.993,360.76 456.749,360.76 456.749,365.696 461.324,365.696 	"/>
	<path clip-path="url(#SVGID_4_)" d="M466.452,361.662v6.935h-3.215v-17.819h4.208c1.781,0,3.096,0.435,3.942,1.304
		c0.848,0.87,1.271,2.199,1.271,3.986c0,2.251-0.737,3.823-2.211,4.717l3.322,7.812h-3.44l-2.731-6.935H466.452z M466.452,358.81
		h0.828c0.756,0,1.3-0.221,1.631-0.664c0.331-0.443,0.497-1.103,0.497-1.981c0-0.91-0.176-1.558-0.526-1.943
		c-0.351-0.386-0.893-0.579-1.625-0.579h-0.805V358.81z"/>
	<polygon clip-path="url(#SVGID_4_)" points="505.34,330.6 497.55,330.6 497.55,312.782 505.34,312.782 505.34,315.646 
		500.765,315.646 500.765,319.887 505.009,319.887 505.009,322.764 500.765,322.764 500.765,327.7 505.34,327.7 	"/>
	<path clip-path="url(#SVGID_4_)" d="M517.743,312.781v11.53c0,2.12-0.466,3.739-1.396,4.856c-0.93,1.117-2.273,1.676-4.031,1.676
		c-1.718,0-3.026-0.554-3.925-1.664c-0.898-1.108-1.348-2.748-1.348-4.917v-11.481h3.192v11.725c0,2.267,0.729,3.4,2.187,3.4
		c0.678,0,1.202-0.289,1.572-0.865c0.37-0.577,0.556-1.398,0.556-2.462v-11.798H517.743z"/>
	<path clip-path="url(#SVGID_4_)" d="M523.301,323.665v6.935h-3.215v-17.819h4.208c1.781,0,3.096,0.435,3.942,1.304
		c0.848,0.87,1.271,2.199,1.271,3.986c0,2.251-0.737,3.823-2.211,4.717l3.322,7.812h-3.44l-2.731-6.935H523.301z M523.301,320.813
		h0.828c0.756,0,1.3-0.221,1.631-0.664s0.497-1.103,0.497-1.981c0-0.91-0.176-1.558-0.526-1.943
		c-0.351-0.386-0.893-0.579-1.625-0.579h-0.805V320.813z"/>
	<polygon clip-path="url(#SVGID_4_)" points="539.507,330.6 531.717,330.6 531.717,312.782 539.507,312.782 539.507,315.646 
		534.932,315.646 534.932,319.887 539.176,319.887 539.176,322.764 534.932,322.764 534.932,327.7 539.507,327.7 	"/>
	<polygon clip-path="url(#SVGID_4_)" points="552.189,330.6 548.761,330.6 545.924,322.982 544.635,324.311 544.635,330.6 
		541.42,330.6 541.42,312.782 544.635,312.782 544.635,321.618 545.758,318.949 548.702,312.782 552.142,312.782 548.146,320.496 	
		"/>
	<path clip-path="url(#SVGID_4_)" d="M562.2,330.6l-0.993-4.497h-4.504l-0.994,4.497h-3.215l4.279-17.892h4.362l4.292,17.892H562.2z
		 M560.604,323.165l-0.922-4.144c-0.055-0.252-0.179-0.883-0.372-1.895c-0.193-1.011-0.31-1.688-0.349-2.029
		c-0.103,0.699-0.232,1.469-0.391,2.31c-0.157,0.841-0.567,2.76-1.229,5.758H560.604z"/>
	<path clip-path="url(#SVGID_4_)" d="M460.966,489.119h-3.925l-5.344-12.906h-0.153c0.196,0.982,0.295,2.039,0.295,3.168v9.738
		h-2.979v-17.818h3.948l5.296,12.772h0.13c-0.149-0.853-0.225-1.868-0.225-3.047v-9.726h2.956V489.119z"/>
	<polygon clip-path="url(#SVGID_4_)" points="467.702,478.333 470.007,471.301 473.376,471.301 469.274,481.979 469.274,489.119 
		466.106,489.119 466.106,482.111 462.015,471.301 465.408,471.301 	"/>
	<polygon clip-path="url(#SVGID_4_)" points="482.238,489.119 474.448,489.119 474.448,471.301 482.238,471.301 482.238,474.165 
		477.663,474.165 477.663,478.406 481.907,478.406 481.907,481.282 477.663,481.282 477.663,486.219 482.238,486.219 	"/>
	<polygon clip-path="url(#SVGID_4_)" points="545.678,619.93 545.678,602.111 548.893,602.111 548.893,617.029 553.35,617.029 
		553.35,619.93 	"/>
	<rect x="554.957" y="602.111" clip-path="url(#SVGID_4_)" width="3.026" height="17.817"/>
	<path clip-path="url(#SVGID_4_)" d="M572.786,619.93h-3.925l-5.345-12.906h-0.152c0.196,0.982,0.295,2.039,0.295,3.168v9.738
		h-2.979v-17.818h3.948l5.296,12.772h0.13c-0.149-0.853-0.225-1.868-0.225-3.047v-9.726h2.956V619.93z"/>
	<path clip-path="url(#SVGID_4_)" d="M580.908,604.756c-0.922,0-1.649,0.557-2.182,1.67c-0.531,1.113-0.797,2.661-0.797,4.644
		c0,4.128,1.043,6.191,3.132,6.191c0.914,0,1.872-0.301,2.873-0.901v2.949c-0.844,0.576-1.923,0.865-3.239,0.865
		c-1.947,0-3.442-0.799-4.486-2.396c-1.045-1.597-1.566-3.841-1.566-6.733s0.537-5.147,1.613-6.764
		c1.076-1.617,2.571-2.426,4.486-2.426c0.631,0,1.235,0.09,1.815,0.269c0.579,0.179,1.199,0.491,1.861,0.938l-1.063,2.693
		c-0.354-0.252-0.733-0.48-1.136-0.688C581.818,604.86,581.381,604.756,580.908,604.756"/>
	<path clip-path="url(#SVGID_4_)" d="M597.258,610.996c0,2.949-0.536,5.217-1.608,6.801c-1.071,1.584-2.604,2.377-4.599,2.377
		c-2.002,0-3.538-0.79-4.61-2.371c-1.071-1.58-1.607-3.857-1.607-6.831c0-2.949,0.536-5.21,1.607-6.782
		c1.072-1.572,2.616-2.358,4.635-2.358c1.993,0,3.522,0.79,4.587,2.371C596.725,605.782,597.258,608.047,597.258,610.996
		 M588.119,610.996c0,2.031,0.248,3.579,0.745,4.644c0.496,1.064,1.226,1.597,2.187,1.597c1.939,0,2.908-2.08,2.908-6.24
		s-0.961-6.24-2.884-6.24c-0.978,0-1.715,0.53-2.211,1.591C588.367,607.407,588.119,608.957,588.119,610.996"/>
	<polygon clip-path="url(#SVGID_4_)" points="599.137,619.93 599.137,602.111 602.352,602.111 602.352,617.029 606.809,617.029 
		606.809,619.93 	"/>
	<path clip-path="url(#SVGID_4_)" d="M620.241,619.93h-3.925l-5.344-12.906h-0.153c0.196,0.982,0.295,2.039,0.295,3.168v9.738
		h-2.979v-17.818h3.948l5.296,12.772h0.13c-0.149-0.853-0.225-1.868-0.225-3.047v-9.726h2.956V619.93z"/>
	<path clip-path="url(#SVGID_4_)" d="M528.591,743.075c-0.922,0-1.649,0.557-2.182,1.67c-0.531,1.113-0.798,2.661-0.798,4.644
		c0,4.128,1.043,6.191,3.133,6.191c0.914,0,1.872-0.301,2.873-0.902v2.95c-0.844,0.576-1.923,0.865-3.239,0.865
		c-1.947,0-3.442-0.799-4.486-2.396c-1.045-1.597-1.566-3.841-1.566-6.733s0.538-5.147,1.613-6.764
		c1.076-1.617,2.571-2.426,4.486-2.426c0.631,0,1.235,0.09,1.815,0.269c0.579,0.179,1.199,0.491,1.861,0.938l-1.063,2.693
		c-0.354-0.252-0.733-0.481-1.136-0.688C529.501,743.18,529.063,743.075,528.591,743.075"/>
	<polygon clip-path="url(#SVGID_4_)" points="533.382,758.249 533.382,740.431 536.597,740.431 536.597,755.349 541.054,755.349 
		541.054,758.249 	"/>
	<path clip-path="url(#SVGID_4_)" d="M551.326,758.25l-0.993-4.497h-4.504l-0.993,4.497h-3.216l4.279-17.893h4.362l4.292,17.893
		H551.326z M549.729,750.814l-0.922-4.144c-0.056-0.252-0.179-0.884-0.372-1.896c-0.193-1.011-0.311-1.688-0.349-2.029
		c-0.103,0.699-0.232,1.469-0.391,2.31c-0.157,0.842-0.567,2.761-1.229,5.759H549.729z"/>
	<path clip-path="url(#SVGID_4_)" d="M558.841,751.314v6.935h-3.215v-17.818h4.208c1.781,0,3.096,0.435,3.942,1.305
		c0.848,0.869,1.271,2.197,1.271,3.985c0,2.25-0.737,3.822-2.211,4.716l3.322,7.813h-3.44l-2.73-6.935H558.841z M558.841,748.463
		h0.828c0.756,0,1.3-0.222,1.631-0.665c0.331-0.442,0.497-1.103,0.497-1.98c0-0.909-0.176-1.558-0.526-1.943
		s-0.893-0.579-1.625-0.579h-0.805V748.463z"/>
	<polygon clip-path="url(#SVGID_4_)" points="578.026,758.249 574.598,758.249 571.761,750.632 570.472,751.96 570.472,758.249 
		567.257,758.249 567.257,740.431 570.472,740.431 570.472,749.267 571.595,746.598 574.539,740.431 577.979,740.431 
		573.983,748.145 	"/>
	<polygon clip-path="url(#SVGID_4_)" points="300.637,526.121 292.846,526.121 292.846,508.303 300.637,508.303 300.637,511.167 
		296.062,511.167 296.062,515.408 300.306,515.408 300.306,518.284 296.062,518.284 296.062,523.221 300.637,523.221 	"/>
	<path clip-path="url(#SVGID_4_)" d="M310.423,521.21c0,1.665-0.408,2.941-1.224,3.826c-0.816,0.886-1.992,1.329-3.528,1.329
		c-1.506,0-2.787-0.305-3.843-0.914v-3.279c1.293,0.87,2.479,1.305,3.559,1.305c0.615,0,1.078-0.175,1.389-0.524
		c0.311-0.349,0.467-0.824,0.467-1.426c0-0.593-0.185-1.136-0.556-1.627c-0.37-0.491-0.981-1.038-1.832-1.64
		c-0.741-0.527-1.303-1.033-1.685-1.517c-0.382-0.483-0.678-1.026-0.887-1.627c-0.208-0.602-0.313-1.301-0.313-2.097
		c0-1.527,0.412-2.738,1.236-3.632c0.823-0.894,1.928-1.341,3.316-1.341c1.324,0,2.596,0.382,3.818,1.146l-1.064,2.657
		c-0.378-0.228-0.774-0.431-1.188-0.609c-0.414-0.178-0.857-0.269-1.33-0.269c-0.52,0-0.92,0.177-1.2,0.53
		c-0.28,0.354-0.42,0.835-0.42,1.444c0,0.602,0.168,1.126,0.503,1.572c0.335,0.447,0.92,0.955,1.756,1.523
		c1.127,0.78,1.913,1.576,2.358,2.389S310.423,520.17,310.423,521.21"/>
	<path clip-path="url(#SVGID_4_)" d="M318.161,526.121l-3.286-15.174h-0.131c0.15,1.17,0.225,2.243,0.225,3.218v11.956h-2.979
		v-17.818h4.942l2.955,14.004h0.095l2.931-14.004h5.013v17.818h-3.05v-12.078c0-0.999,0.055-2.022,0.165-3.071h-0.094l-3.275,15.149
		H318.161z"/>
	<polygon clip-path="url(#SVGID_4_)" points="338.134,526.121 330.343,526.121 330.343,508.303 338.134,508.303 338.134,511.167 
		333.559,511.167 333.559,515.408 337.803,515.408 337.803,518.284 333.559,518.284 333.559,523.221 338.134,523.221 	"/>
	<path clip-path="url(#SVGID_4_)" d="M343.263,519.188v6.934h-3.216v-17.818h4.209c1.781,0,3.096,0.435,3.942,1.305
		c0.847,0.869,1.271,2.197,1.271,3.985c0,2.25-0.736,3.822-2.211,4.716l3.322,7.813h-3.439l-2.731-6.934H343.263z M343.263,516.335
		h0.827c0.756,0,1.301-0.222,1.631-0.665c0.332-0.442,0.498-1.103,0.498-1.98c0-0.909-0.176-1.558-0.527-1.943
		c-0.35-0.386-0.893-0.579-1.625-0.579h-0.804V516.335z"/>
	<path clip-path="url(#SVGID_4_)" d="M360.625,526.121l-0.993-4.496h-4.504l-0.994,4.496h-3.215l4.279-17.892h4.362l4.292,17.892
		H360.625z M359.028,518.687l-0.922-4.144c-0.055-0.253-0.179-0.884-0.372-1.896c-0.193-1.011-0.31-1.688-0.349-2.029
		c-0.102,0.699-0.232,1.469-0.39,2.31c-0.157,0.842-0.568,2.761-1.23,5.759H359.028z"/>
	<polygon clip-path="url(#SVGID_4_)" points="364.925,526.121 364.925,508.303 368.14,508.303 368.14,523.221 372.597,523.221 
		372.597,526.121 	"/>
	<path clip-path="url(#SVGID_4_)" d="M384.917,517.041c0,2.941-0.581,5.19-1.744,6.746c-1.162,1.556-2.835,2.334-5.019,2.334h-4.231
		v-17.818h4.622c2.01,0,3.574,0.767,4.693,2.298S384.917,514.279,384.917,517.041 M381.618,517.139c0-3.979-1.063-5.972-3.191-5.972
		h-1.289v12.054h1.041c1.173,0,2.041-0.506,2.6-1.518C381.339,520.691,381.618,519.17,381.618,517.139"/>
	<path clip-path="url(#SVGID_4_)" d="M394.634,526.121l-0.993-4.496h-4.504l-0.993,4.496h-3.216l4.279-17.892h4.362l4.292,17.892
		H394.634z M393.037,518.687l-0.922-4.144c-0.055-0.253-0.179-0.884-0.372-1.896c-0.193-1.011-0.31-1.688-0.349-2.029
		c-0.103,0.699-0.232,1.469-0.391,2.31c-0.157,0.842-0.567,2.761-1.229,5.759H393.037z"/>
	<path clip-path="url(#SVGID_4_)" d="M123.845,610.523c0,1.665-0.408,2.941-1.224,3.826c-0.816,0.886-1.992,1.329-3.528,1.329
		c-1.506,0-2.787-0.305-3.843-0.914v-3.279c1.293,0.87,2.479,1.305,3.559,1.305c0.615,0,1.078-0.175,1.389-0.524
		c0.311-0.349,0.467-0.824,0.467-1.426c0-0.593-0.185-1.136-0.556-1.627c-0.37-0.491-0.981-1.038-1.832-1.64
		c-0.741-0.528-1.303-1.033-1.685-1.517c-0.382-0.483-0.678-1.026-0.887-1.627c-0.208-0.602-0.313-1.301-0.313-2.097
		c0-1.527,0.412-2.738,1.236-3.632c0.823-0.894,1.928-1.341,3.316-1.341c1.324,0,2.596,0.382,3.818,1.146l-1.064,2.657
		c-0.378-0.228-0.774-0.431-1.188-0.609s-0.857-0.269-1.33-0.269c-0.52,0-0.92,0.176-1.2,0.53c-0.28,0.354-0.42,0.835-0.42,1.444
		c0,0.602,0.168,1.126,0.503,1.572c0.335,0.447,0.92,0.955,1.756,1.523c1.127,0.78,1.913,1.576,2.358,2.389
		S123.845,609.483,123.845,610.523"/>
	<polygon clip-path="url(#SVGID_4_)" points="131.077,615.435 127.873,615.435 127.873,600.529 124.563,600.529 124.563,597.616 
		134.387,597.616 134.387,600.529 131.077,600.529 	"/>
	<path clip-path="url(#SVGID_4_)" d="M147.29,606.501c0,2.949-0.536,5.217-1.608,6.801c-1.072,1.584-2.605,2.377-4.599,2.377
		c-2.002,0-3.539-0.79-4.611-2.371c-1.071-1.579-1.607-3.857-1.607-6.831c0-2.949,0.536-5.21,1.607-6.782
		c1.072-1.572,2.617-2.358,4.635-2.358c1.994,0,3.523,0.79,4.586,2.371C146.757,601.287,147.29,603.552,147.29,606.501
		 M138.151,606.501c0,2.031,0.249,3.579,0.745,4.644c0.497,1.064,1.225,1.597,2.187,1.597c1.939,0,2.908-2.08,2.908-6.24
		s-0.962-6.24-2.884-6.24c-0.977,0-1.714,0.53-2.211,1.591C138.4,602.912,138.151,604.462,138.151,606.501"/>
	<path clip-path="url(#SVGID_4_)" d="M152.384,608.5v6.935h-3.216v-17.818h4.209c1.781,0,3.095,0.435,3.943,1.304
		c0.847,0.87,1.271,2.198,1.271,3.986c0,2.25-0.738,3.822-2.211,4.716l3.321,7.813h-3.44l-2.731-6.935H152.384z M152.384,605.648
		h0.827c0.757,0,1.301-0.222,1.632-0.665c0.331-0.442,0.496-1.103,0.496-1.981c0-0.908-0.175-1.557-0.526-1.942
		c-0.35-0.386-0.892-0.579-1.625-0.579h-0.804V605.648z"/>
	<polygon clip-path="url(#SVGID_4_)" points="168.589,615.435 160.798,615.435 160.798,597.616 168.589,597.616 168.589,600.48 
		164.014,600.48 164.014,604.722 168.258,604.722 168.258,607.598 164.014,607.598 164.014,612.534 168.589,612.534 	"/>
	<polygon clip-path="url(#SVGID_4_)" points="175.068,604.648 177.373,597.616 180.742,597.616 176.64,608.293 176.64,615.435 
		173.472,615.435 173.472,608.427 169.381,597.616 172.775,597.616 	"/>
	<path clip-path="url(#SVGID_4_)" fill="#969696" d="M256.471,639.14c-0.691,0-1.237,0.417-1.636,1.252
		c-0.399,0.835-0.598,1.996-0.598,3.482c0,3.096,0.783,4.644,2.349,4.644c0.686,0,1.404-0.226,2.155-0.676v2.212
		c-0.633,0.433-1.442,0.648-2.43,0.648c-1.46,0-2.581-0.599-3.364-1.796c-0.784-1.197-1.175-2.881-1.175-5.05
		c0-2.17,0.404-3.86,1.21-5.073c0.807-1.213,1.928-1.819,3.365-1.819c0.473,0,0.927,0.067,1.361,0.201s0.9,0.369,1.396,0.703
		l-0.798,2.021c-0.266-0.188-0.549-0.36-0.851-0.517C257.154,639.217,256.826,639.14,256.471,639.14"/>
	<polygon clip-path="url(#SVGID_4_)" fill="#969696" points="268.106,650.52 265.694,650.52 265.694,644.66 262.512,644.66 
		262.512,650.52 260.101,650.52 260.101,637.156 262.512,637.156 262.512,642.467 265.694,642.467 265.694,637.156 268.106,637.156 
			"/>
	<path clip-path="url(#SVGID_4_)" fill="#969696" d="M277.917,637.156v8.646c0,1.591-0.349,2.805-1.046,3.643
		c-0.698,0.838-1.706,1.257-3.024,1.257c-1.288,0-2.269-0.416-2.943-1.247c-0.674-0.832-1.011-2.062-1.011-3.688v-8.61h2.394v8.793
		c0,1.7,0.547,2.55,1.64,2.55c0.509,0,0.901-0.216,1.179-0.648s0.417-1.048,0.417-1.847v-8.848H277.917z"/>
	<path clip-path="url(#SVGID_4_)" fill="#969696" d="M282.121,645.318v5.201h-2.412v-13.363h3.157c1.335,0,2.321,0.326,2.957,0.978
		c0.635,0.652,0.953,1.649,0.953,2.989c0,1.688-0.553,2.867-1.658,3.537l2.491,5.859h-2.58l-2.048-5.201H282.121z M282.121,643.18
		h0.621c0.567,0,0.975-0.166,1.223-0.498c0.248-0.332,0.372-0.827,0.372-1.485c0-0.683-0.131-1.169-0.394-1.458
		c-0.263-0.289-0.67-0.435-1.219-0.435h-0.603V643.18z"/>
	<path clip-path="url(#SVGID_4_)" fill="#969696" d="M292.522,639.14c-0.691,0-1.237,0.417-1.636,1.252
		c-0.399,0.835-0.598,1.996-0.598,3.482c0,3.096,0.783,4.644,2.349,4.644c0.686,0,1.404-0.226,2.155-0.676v2.212
		c-0.633,0.433-1.442,0.648-2.43,0.648c-1.46,0-2.581-0.599-3.364-1.796c-0.784-1.197-1.175-2.881-1.175-5.05
		c0-2.17,0.404-3.86,1.21-5.073c0.807-1.213,1.928-1.819,3.365-1.819c0.473,0,0.927,0.067,1.361,0.201
		c0.434,0.134,0.9,0.369,1.396,0.703l-0.798,2.021c-0.266-0.188-0.549-0.36-0.851-0.517
		C293.205,639.217,292.877,639.14,292.522,639.14"/>
	<polygon clip-path="url(#SVGID_4_)" fill="#969696" points="304.158,650.52 301.746,650.52 301.746,644.66 298.563,644.66 
		298.563,650.52 296.152,650.52 296.152,637.156 298.563,637.156 298.563,642.467 301.746,642.467 301.746,637.156 304.158,637.156 
			"/>
	<rect x="306.21" y="637.156" clip-path="url(#SVGID_4_)" fill="#969696" width="2.27" height="13.362"/>
	<polygon clip-path="url(#SVGID_4_)" fill="#969696" points="310.54,650.52 310.54,637.156 312.952,637.156 312.952,648.344 
		316.294,648.344 316.294,650.52 	"/>
	<polygon clip-path="url(#SVGID_4_)" fill="#969696" points="317.325,650.52 317.325,637.156 319.737,637.156 319.737,648.344 
		323.079,648.344 323.079,650.52 	"/>
	<path clip-path="url(#SVGID_4_)" fill="#969696" d="M132.522,569.58h-3.014l-1.268-7.002c-0.196-0.956-0.334-2.087-0.417-3.391
		l-0.071,0.676l-0.363,2.752l-1.233,6.965h-3.014l-2.35-13.363h2.367l1.162,7.541c0.112,0.755,0.263,1.94,0.452,3.556
		c0.147-1.634,0.287-2.801,0.416-3.501l1.384-7.596h2.5l1.384,7.596c0.183,1.127,0.327,2.3,0.434,3.519
		c0.207-1.804,0.358-2.994,0.452-3.573l1.126-7.541h2.385L132.522,569.58z"/>
	<path clip-path="url(#SVGID_4_)" fill="#969696" d="M141.596,569.58l-0.745-3.373h-3.378l-0.745,3.373h-2.412l3.21-13.418h3.272
		l3.218,13.418H141.596z M140.399,564.004l-0.692-3.107c-0.041-0.188-0.134-0.664-0.279-1.421c-0.145-0.759-0.232-1.267-0.261-1.522
		c-0.078,0.524-0.175,1.102-0.293,1.732c-0.119,0.631-0.426,2.07-0.922,4.318H140.399z"/>
	<path clip-path="url(#SVGID_4_)" fill="#969696" d="M151,565.896c0,1.249-0.306,2.206-0.917,2.87
		c-0.612,0.664-1.495,0.996-2.647,0.996c-1.129,0-2.09-0.229-2.882-0.686v-2.459c0.969,0.652,1.859,0.979,2.669,0.979
		c0.461,0,0.808-0.131,1.042-0.394c0.233-0.262,0.35-0.618,0.35-1.069c0-0.444-0.139-0.852-0.417-1.22
		c-0.278-0.369-0.736-0.778-1.374-1.229c-0.556-0.396-0.977-0.775-1.263-1.139c-0.288-0.362-0.509-0.769-0.665-1.22
		c-0.157-0.45-0.235-0.975-0.235-1.572c0-1.146,0.308-2.054,0.926-2.724c0.618-0.671,1.447-1.006,2.487-1.006
		c0.993,0,1.947,0.286,2.864,0.859l-0.798,1.992c-0.284-0.169-0.581-0.322-0.891-0.457c-0.311-0.134-0.643-0.2-0.998-0.2
		c-0.39,0-0.69,0.132-0.899,0.397c-0.21,0.265-0.315,0.626-0.315,1.083c0,0.451,0.125,0.844,0.377,1.179
		c0.251,0.336,0.69,0.717,1.316,1.143c0.845,0.585,1.435,1.183,1.769,1.792S151,565.116,151,565.896"/>
	<polygon clip-path="url(#SVGID_4_)" fill="#969696" points="160.217,569.58 157.805,569.58 157.805,563.721 154.623,563.721 
		154.623,569.58 152.211,569.58 152.211,556.217 154.623,556.217 154.623,561.527 157.805,561.527 157.805,556.217 160.217,556.217 
			"/>
	<path clip-path="url(#SVGID_4_)" fill="#969696" d="M170.971,562.88c0,2.212-0.402,3.912-1.206,5.101
		c-0.804,1.188-1.954,1.782-3.449,1.782c-1.501,0-2.654-0.593-3.458-1.777c-0.804-1.186-1.206-2.894-1.206-5.124
		c0-2.211,0.402-3.907,1.206-5.085c0.804-1.181,1.963-1.771,3.476-1.771c1.495,0,2.642,0.593,3.44,1.778
		C170.572,558.97,170.971,560.668,170.971,562.88 M164.117,562.88c0,1.523,0.187,2.685,0.559,3.482
		c0.372,0.799,0.919,1.197,1.64,1.197c1.454,0,2.181-1.56,2.181-4.68s-0.721-4.68-2.163-4.68c-0.733,0-1.286,0.397-1.658,1.192
		C164.304,560.188,164.117,561.351,164.117,562.88"/>
	<polygon clip-path="url(#SVGID_4_)" fill="#969696" points="178.259,569.58 172.417,569.58 172.417,556.217 178.259,556.217 
		178.259,558.364 174.828,558.364 174.828,561.546 178.01,561.546 178.01,563.703 174.828,563.703 174.828,567.404 178.259,567.404 
			"/>
	<path clip-path="url(#SVGID_4_)" fill="#969696" d="M247.461,810.001l-2.465-11.38h-0.098c0.113,0.877,0.169,1.682,0.169,2.413
		v8.967h-2.234v-13.363h3.706l2.216,10.502h0.072l2.198-10.502h3.76v13.363h-2.288v-9.059c0-0.749,0.042-1.518,0.124-2.303h-0.071
		l-2.456,11.361H247.461z"/>
	<rect x="256.844" y="796.638" clip-path="url(#SVGID_4_)" fill="#969696" width="2.27" height="13.363"/>
	<path clip-path="url(#SVGID_4_)" fill="#969696" d="M270.253,810.001h-2.944l-4.008-9.68h-0.115
		c0.148,0.737,0.222,1.529,0.222,2.376v7.304h-2.235v-13.363h2.962l3.972,9.579h0.098c-0.113-0.64-0.169-1.401-0.169-2.285v-7.294
		h2.217V810.001z"/>
	<polygon clip-path="url(#SVGID_4_)" fill="#969696" points="277.937,810.001 272.094,810.001 272.094,796.638 277.937,796.638 
		277.937,798.785 274.506,798.785 274.506,801.967 277.688,801.967 277.688,804.124 274.506,804.124 274.506,807.825 
		277.937,807.825 	"/>
	<path clip-path="url(#SVGID_4_)" fill="#969696" d="M281.814,804.8v5.201h-2.412v-13.363h3.157c1.335,0,2.321,0.326,2.957,0.978
		c0.635,0.652,0.953,1.648,0.953,2.989c0,1.688-0.553,2.867-1.658,3.536l2.491,5.86h-2.58l-2.048-5.201H281.814z M281.814,802.661
		h0.621c0.567,0,0.975-0.166,1.223-0.498c0.248-0.332,0.372-0.827,0.372-1.485c0-0.683-0.131-1.169-0.394-1.458
		c-0.263-0.289-0.67-0.435-1.219-0.435h-0.603V802.661z"/>
	<path clip-path="url(#SVGID_4_)" fill="#969696" d="M294.864,810.001l-0.745-3.373h-3.378l-0.745,3.373h-2.412l3.21-13.418h3.272
		l3.218,13.418H294.864z M293.667,804.425l-0.692-3.107c-0.041-0.188-0.134-0.664-0.279-1.421c-0.145-0.759-0.232-1.267-0.261-1.522
		c-0.078,0.524-0.175,1.102-0.293,1.732c-0.119,0.63-0.426,2.07-0.922,4.318H293.667z"/>
	<polygon clip-path="url(#SVGID_4_)" fill="#969696" points="298.123,810.001 298.123,796.638 300.535,796.638 300.535,807.825 
		303.876,807.825 303.876,810.001 	"/>
	<path clip-path="url(#SVGID_4_)" d="M49.494,659.819c-0.769,0-1.374,0.464-1.817,1.392c-0.444,0.928-0.665,2.218-0.665,3.869
		c0,3.439,0.87,5.159,2.61,5.159c0.762,0,1.56-0.25,2.394-0.751v2.458c-0.703,0.48-1.603,0.721-2.699,0.721
		c-1.623,0-2.869-0.665-3.739-1.996s-1.305-3.2-1.305-5.611c0-2.41,0.448-4.289,1.345-5.637c0.896-1.347,2.142-2.021,3.738-2.021
		c0.526,0,1.03,0.074,1.513,0.224c0.482,0.148,0.999,0.409,1.551,0.781l-0.887,2.245c-0.295-0.21-0.61-0.401-0.945-0.574
		S49.888,659.819,49.494,659.819"/>
	<path clip-path="url(#SVGID_4_)" d="M60.74,672.464l-0.828-3.748h-3.753l-0.828,3.748h-2.679l3.566-14.909h3.635l3.577,14.909
		H60.74z M59.41,666.269l-0.769-3.453c-0.045-0.21-0.149-0.735-0.31-1.579c-0.161-0.843-0.258-1.406-0.291-1.691
		c-0.085,0.583-0.193,1.224-0.325,1.925c-0.131,0.701-0.472,2.301-1.024,4.799H59.41z"/>
	<path clip-path="url(#SVGID_4_)" d="M67.027,666.685v5.779h-2.68v-14.849h3.507c1.485,0,2.58,0.362,3.286,1.087
		c0.706,0.725,1.059,1.832,1.059,3.321c0,1.875-0.614,3.186-1.842,3.932l2.768,6.509h-2.867l-2.275-5.779H67.027z M67.027,664.309
		h0.689c0.631,0,1.084-0.185,1.36-0.554c0.276-0.369,0.414-0.919,0.414-1.65c0-0.758-0.147-1.298-0.439-1.62
		s-0.744-0.482-1.354-0.482h-0.67V664.309z"/>
	<path clip-path="url(#SVGID_4_)" d="M80.871,668.371c0,1.388-0.34,2.451-1.02,3.188c-0.679,0.738-1.66,1.107-2.94,1.107
		c-1.255,0-2.322-0.254-3.202-0.762v-2.732c1.077,0.725,2.065,1.087,2.965,1.087c0.512,0,0.898-0.146,1.158-0.437
		c0.259-0.291,0.389-0.688,0.389-1.188c0-0.494-0.155-0.946-0.463-1.355c-0.309-0.41-0.818-0.865-1.527-1.366
		c-0.617-0.44-1.086-0.861-1.404-1.265c-0.319-0.402-0.565-0.854-0.739-1.355c-0.174-0.501-0.261-1.083-0.261-1.747
		c0-1.272,0.343-2.281,1.029-3.026c0.687-0.745,1.608-1.117,2.764-1.117c1.104,0,2.164,0.318,3.182,0.954l-0.887,2.215
		c-0.315-0.189-0.645-0.359-0.99-0.508c-0.345-0.149-0.714-0.224-1.108-0.224c-0.433,0-0.767,0.147-1,0.441
		c-0.233,0.295-0.35,0.696-0.35,1.204c0,0.501,0.14,0.938,0.419,1.31c0.279,0.373,0.767,0.796,1.463,1.27
		c0.939,0.65,1.594,1.313,1.965,1.991C80.685,666.732,80.871,667.504,80.871,668.371"/>
	<path clip-path="url(#SVGID_4_)" d="M92.071,665.02c0,2.458-0.447,4.347-1.34,5.667s-2.171,1.979-3.832,1.979
		c-1.668,0-2.949-0.657-3.842-1.975c-0.893-1.316-1.34-3.214-1.34-5.693c0-2.457,0.447-4.341,1.34-5.651
		c0.893-1.31,2.18-1.965,3.862-1.965c1.662,0,2.935,0.659,3.822,1.976C91.627,660.674,92.071,662.562,92.071,665.02 M84.456,665.02
		c0,1.692,0.207,2.982,0.621,3.869c0.413,0.888,1.021,1.331,1.822,1.331c1.616,0,2.424-1.733,2.424-5.2s-0.802-5.2-2.404-5.2
		c-0.815,0-1.429,0.441-1.842,1.325C84.663,662.028,84.456,663.32,84.456,665.02"/>
	<path clip-path="url(#SVGID_4_)" d="M103.753,672.464h-3.271l-4.453-10.756h-0.128c0.165,0.819,0.247,1.7,0.247,2.641v8.115h-2.483
		v-14.849h3.29l4.414,10.644h0.108c-0.124-0.711-0.187-1.557-0.187-2.539v-8.104h2.463V672.464z"/>
	<path clip-path="url(#SVGID_4_)" d="M115.049,659.819c-0.769,0-1.374,0.464-1.817,1.392c-0.444,0.928-0.665,2.218-0.665,3.869
		c0,3.439,0.87,5.159,2.61,5.159c0.762,0,1.56-0.25,2.394-0.751v2.458c-0.703,0.48-1.603,0.721-2.699,0.721
		c-1.623,0-2.869-0.665-3.739-1.996s-1.305-3.2-1.305-5.611c0-2.41,0.448-4.289,1.345-5.637c0.896-1.347,2.142-2.021,3.738-2.021
		c0.526,0,1.03,0.074,1.513,0.224c0.482,0.148,0.999,0.409,1.551,0.781l-0.887,2.245c-0.295-0.21-0.61-0.401-0.945-0.574
		C115.808,659.905,115.443,659.819,115.049,659.819"/>
	<rect x="119.304" y="657.615" clip-path="url(#SVGID_4_)" width="2.522" height="14.849"/>
	<polygon clip-path="url(#SVGID_4_)" points="128.535,672.464 125.865,672.464 125.865,660.043 123.107,660.043 123.107,657.615 
		131.293,657.615 131.293,660.043 128.535,660.043 	"/>
	<polygon clip-path="url(#SVGID_4_)" points="136.438,663.476 138.358,657.615 141.167,657.615 137.748,666.513 137.748,672.464 
		135.107,672.464 135.107,666.624 131.698,657.615 134.526,657.615 	"/>
	<path clip-path="url(#SVGID_4_)" d="M73.56,732.702c0,2.941-0.581,5.19-1.743,6.746c-1.163,1.556-2.836,2.334-5.019,2.334h-4.232
		v-17.818h4.622c2.01,0,3.574,0.767,4.694,2.298C73,727.793,73.56,729.94,73.56,732.702 M70.262,732.8
		c0-3.98-1.064-5.972-3.192-5.972h-1.288v12.054h1.04c1.174,0,2.041-0.506,2.601-1.518C69.982,736.353,70.262,734.831,70.262,732.8"
		/>
	<path clip-path="url(#SVGID_4_)" d="M87.271,732.849c0,2.949-0.536,5.217-1.608,6.801c-1.072,1.584-2.605,2.377-4.599,2.377
		c-2.002,0-3.539-0.79-4.611-2.371c-1.071-1.58-1.607-3.857-1.607-6.831c0-2.949,0.536-5.21,1.607-6.782
		c1.072-1.572,2.617-2.358,4.635-2.358c1.994,0,3.523,0.79,4.586,2.371C86.738,727.635,87.271,729.899,87.271,732.849
		 M78.132,732.849c0,2.031,0.249,3.579,0.745,4.644c0.497,1.064,1.225,1.597,2.187,1.597c1.939,0,2.908-2.08,2.908-6.24
		s-0.962-6.24-2.884-6.24c-0.977,0-1.714,0.53-2.211,1.591C78.381,729.26,78.132,730.81,78.132,732.849"/>
	<path clip-path="url(#SVGID_4_)" d="M99.717,723.964v11.529c0,2.121-0.465,3.741-1.395,4.857c-0.93,1.117-2.274,1.676-4.031,1.676
		c-1.719,0-3.027-0.555-3.925-1.664c-0.899-1.109-1.348-2.748-1.348-4.918v-11.48h3.192v11.725c0,2.267,0.729,3.4,2.187,3.4
		c0.678,0,1.202-0.288,1.572-0.865c0.371-0.577,0.556-1.397,0.556-2.462v-11.798H99.717z"/>
	<path clip-path="url(#SVGID_4_)" d="M107.222,731.898h5.284v9.141c-1.497,0.658-3.089,0.987-4.776,0.987
		c-2.009,0-3.556-0.788-4.64-2.365c-1.084-1.576-1.625-3.847-1.625-6.813c0-2.859,0.62-5.099,1.861-6.715
		c1.242-1.617,2.978-2.426,5.208-2.426c1.379,0,2.695,0.366,3.949,1.097l-1.017,2.706c-0.977-0.585-1.891-0.878-2.743-0.878
		c-1.222,0-2.189,0.563-2.902,1.688s-1.07,2.659-1.07,4.601c0,1.998,0.258,3.53,0.774,4.595c0.516,1.064,1.267,1.597,2.253,1.597
		c0.52,0,1.048-0.069,1.584-0.207v-4.083h-2.14V731.898z"/>
	<polygon clip-path="url(#SVGID_4_)" points="114.644,741.782 114.644,723.964 117.859,723.964 117.859,738.882 122.315,738.882 
		122.315,741.782 	"/>
	<path clip-path="url(#SVGID_4_)" d="M132.588,741.783l-0.993-4.497h-4.504l-0.994,4.497h-3.215l4.279-17.893h4.363l4.291,17.893
		H132.588z M130.992,734.348l-0.922-4.144c-0.056-0.252-0.18-0.884-0.372-1.896c-0.194-1.011-0.31-1.688-0.349-2.029
		c-0.103,0.699-0.233,1.469-0.39,2.31c-0.158,0.842-0.568,2.761-1.23,5.759H130.992z"/>
	<path clip-path="url(#SVGID_4_)" d="M145.083,736.871c0,1.665-0.408,2.941-1.224,3.826c-0.816,0.886-1.992,1.329-3.528,1.329
		c-1.506,0-2.787-0.305-3.843-0.914v-3.279c1.293,0.87,2.479,1.305,3.559,1.305c0.615,0,1.078-0.175,1.389-0.524
		c0.311-0.349,0.467-0.824,0.467-1.426c0-0.593-0.185-1.136-0.556-1.627c-0.37-0.491-0.981-1.038-1.832-1.64
		c-0.741-0.527-1.303-1.033-1.685-1.517c-0.382-0.483-0.678-1.026-0.887-1.627c-0.208-0.602-0.313-1.301-0.313-2.097
		c0-1.527,0.412-2.738,1.236-3.632c0.823-0.894,1.928-1.341,3.316-1.341c1.324,0,2.596,0.382,3.818,1.146l-1.064,2.657
		c-0.378-0.228-0.774-0.431-1.188-0.609s-0.857-0.269-1.33-0.269c-0.52,0-0.92,0.177-1.2,0.53c-0.28,0.354-0.42,0.835-0.42,1.444
		c0,0.602,0.168,1.126,0.503,1.572c0.335,0.447,0.92,0.955,1.756,1.523c1.127,0.78,1.913,1.576,2.358,2.389
		S145.083,735.831,145.083,736.871"/>
	<polygon clip-path="url(#SVGID_4_)" points="176.985,706.065 176.985,688.247 180.201,688.247 180.201,703.165 184.657,703.165 
		184.657,706.065 	"/>
	<polygon clip-path="url(#SVGID_4_)" points="188.835,695.279 191.141,688.247 194.509,688.247 190.407,698.924 190.407,706.065 
		187.239,706.065 187.239,699.058 183.148,688.247 186.542,688.247 	"/>
	<path clip-path="url(#SVGID_4_)" d="M206.723,697.132c0,2.949-0.536,5.217-1.608,6.801c-1.072,1.584-2.605,2.377-4.599,2.377
		c-2.002,0-3.539-0.79-4.611-2.371c-1.071-1.58-1.607-3.857-1.607-6.831c0-2.949,0.536-5.21,1.607-6.782
		c1.072-1.572,2.617-2.358,4.635-2.358c1.994,0,3.523,0.79,4.586,2.371C206.189,691.918,206.723,694.183,206.723,697.132
		 M197.583,697.132c0,2.031,0.249,3.579,0.745,4.644c0.497,1.064,1.225,1.597,2.187,1.597c1.939,0,2.908-2.08,2.908-6.24
		s-0.962-6.24-2.884-6.24c-0.977,0-1.714,0.53-2.211,1.591C197.833,693.543,197.583,695.093,197.583,697.132"/>
	<path clip-path="url(#SVGID_4_)" d="M220.707,706.065h-3.925l-5.344-12.906h-0.153c0.196,0.982,0.295,2.039,0.295,3.168v9.738
		h-2.979v-17.818h3.949l5.296,12.772h0.13c-0.15-0.853-0.225-1.868-0.225-3.047v-9.726h2.956V706.065z"/>
	<path clip-path="url(#SVGID_4_)" d="M269.931,456.025l-3.286-15.173h-0.131c0.15,1.17,0.225,2.242,0.225,3.217v11.956h-2.979
		v-17.818h4.942l2.955,14.004h0.095l2.931-14.004h5.013v17.818h-3.05v-12.078c0-0.999,0.055-2.023,0.165-3.071h-0.094l-3.275,15.149
		H269.931z"/>
	<rect x="282.389" y="438.207" clip-path="url(#SVGID_4_)" width="3.026" height="17.818"/>
	<path clip-path="url(#SVGID_4_)" d="M300.218,456.025h-3.925l-5.344-12.907h-0.153c0.196,0.984,0.295,2.04,0.295,3.169v9.738
		h-2.979v-17.818h3.949l5.296,12.773h0.13c-0.15-0.854-0.225-1.87-0.225-3.047v-9.726h2.956V456.025z"/>
	<polygon clip-path="url(#SVGID_4_)" points="310.417,456.025 302.625,456.025 302.625,438.208 310.417,438.208 310.417,441.071 
		305.841,441.071 305.841,445.313 310.085,445.313 310.085,448.189 305.841,448.189 305.841,453.125 310.417,453.125 	"/>
	<path clip-path="url(#SVGID_4_)" d="M315.545,449.091v6.935h-3.216v-17.819h4.209c1.781,0,3.095,0.435,3.943,1.304
		c0.847,0.87,1.271,2.199,1.271,3.986c0,2.251-0.738,3.823-2.211,4.717l3.321,7.812h-3.44l-2.731-6.935H315.545z M315.545,446.239
		h0.827c0.757,0,1.301-0.221,1.632-0.664s0.496-1.103,0.496-1.981c0-0.91-0.175-1.558-0.526-1.943
		c-0.35-0.386-0.892-0.579-1.625-0.579h-0.804V446.239z"/>
	<path clip-path="url(#SVGID_4_)" d="M332.906,456.026l-0.993-4.497h-4.504l-0.994,4.497H323.2l4.279-17.892h4.363l4.291,17.892
		H332.906z M331.31,448.591l-0.922-4.144c-0.056-0.252-0.18-0.883-0.372-1.895c-0.194-1.011-0.31-1.688-0.349-2.029
		c-0.103,0.699-0.233,1.469-0.39,2.31c-0.158,0.841-0.568,2.76-1.23,5.758H331.31z"/>
	<polygon clip-path="url(#SVGID_4_)" points="337.206,456.025 337.206,438.208 340.421,438.208 340.421,453.125 344.877,453.125 
		344.877,456.025 	"/>
	<path clip-path="url(#SVGID_4_)" d="M223.319,203.854h-4.02l-1.69-9.335c-0.26-1.276-0.445-2.783-0.556-4.522l-0.094,0.902
		l-0.485,3.668l-1.643,9.287h-4.019l-3.133-17.818h3.156l1.549,10.054c0.149,1.008,0.351,2.589,0.603,4.742
		c0.197-2.178,0.382-3.734,0.556-4.668l1.844-10.128h3.333l1.845,10.128c0.244,1.503,0.437,3.067,0.579,4.692
		c0.276-2.405,0.477-3.993,0.603-4.766l1.501-10.054h3.18L223.319,203.854z"/>
	<path clip-path="url(#SVGID_4_)" d="M235.367,203.854l-0.993-4.497h-4.504l-0.994,4.497h-3.215l4.279-17.892h4.363l4.291,17.892
		H235.367z M233.771,196.419l-0.922-4.144c-0.056-0.252-0.18-0.883-0.372-1.895c-0.194-1.011-0.31-1.688-0.349-2.029
		c-0.103,0.699-0.233,1.469-0.39,2.31c-0.158,0.841-0.568,2.76-1.23,5.758H233.771z"/>
	<path clip-path="url(#SVGID_4_)" d="M247.861,198.942c0,1.666-0.408,2.941-1.224,3.827c-0.816,0.885-1.992,1.328-3.528,1.328
		c-1.506,0-2.787-0.304-3.843-0.914v-3.278c1.293,0.87,2.479,1.304,3.559,1.304c0.615,0,1.078-0.175,1.389-0.524
		s0.467-0.825,0.467-1.426c0-0.593-0.185-1.135-0.556-1.627c-0.37-0.492-0.981-1.038-1.832-1.639
		c-0.741-0.529-1.303-1.034-1.685-1.518c-0.382-0.483-0.678-1.025-0.887-1.627c-0.208-0.601-0.313-1.3-0.313-2.096
		c0-1.527,0.412-2.738,1.236-3.632c0.823-0.893,1.928-1.341,3.316-1.341c1.324,0,2.596,0.383,3.818,1.146l-1.064,2.657
		c-0.378-0.227-0.774-0.431-1.188-0.609c-0.414-0.179-0.857-0.268-1.33-0.268c-0.52,0-0.92,0.176-1.2,0.529
		c-0.28,0.354-0.42,0.835-0.42,1.445c0,0.601,0.168,1.125,0.503,1.572c0.335,0.447,0.92,0.955,1.756,1.524
		c1.127,0.78,1.913,1.576,2.358,2.388C247.638,196.976,247.861,197.902,247.861,198.942"/>
	<polygon clip-path="url(#SVGID_4_)" points="260.103,203.854 256.888,203.854 256.888,196.042 252.644,196.042 252.644,203.854 
		249.428,203.854 249.428,186.036 252.644,186.036 252.644,193.117 256.888,193.117 256.888,186.036 260.103,186.036 	"/>
	<path clip-path="url(#SVGID_4_)" d="M274.388,194.92c0,2.95-0.536,5.216-1.608,6.801c-1.072,1.584-2.605,2.376-4.599,2.376
		c-2.002,0-3.539-0.79-4.611-2.37c-1.071-1.58-1.607-3.857-1.607-6.831c0-2.95,0.536-5.21,1.607-6.783
		c1.072-1.572,2.617-2.358,4.635-2.358c1.994,0,3.523,0.79,4.586,2.371C273.854,189.706,274.388,191.971,274.388,194.92
		 M265.249,194.92c0,2.031,0.249,3.579,0.745,4.644c0.497,1.064,1.225,1.596,2.187,1.596c1.939,0,2.908-2.08,2.908-6.24
		s-0.962-6.24-2.884-6.24c-0.977,0-1.714,0.531-2.211,1.591C265.498,191.331,265.249,192.881,265.249,194.92"/>
	<polygon clip-path="url(#SVGID_4_)" points="284.056,203.854 276.265,203.854 276.265,186.036 284.056,186.036 284.056,188.899 
		279.481,188.899 279.481,193.141 283.725,193.141 283.725,196.018 279.481,196.018 279.481,200.954 284.056,200.954 	"/>
</g>
<g>
	<defs>
		<rect id="SVGID_5_" width="768" height="922"/>
	</defs>
	<clipPath id="SVGID_6_">
		<use xlink:href="#SVGID_5_"  overflow="visible"/>
	</clipPath>
</g>
<g>
	<defs>
		<rect id="SVGID_7_" width="768" height="922"/>
	</defs>
	<clipPath id="SVGID_8_">
		<use xlink:href="#SVGID_7_"  overflow="visible"/>
	</clipPath>
</g>
<g>
	<defs>
		<rect id="SVGID_9_" width="768" height="922"/>
	</defs>
	<clipPath id="SVGID_10_">
		<use xlink:href="#SVGID_9_"  overflow="visible"/>
	</clipPath>
</g>
<g>
	<defs>
		<rect id="SVGID_11_" width="768" height="922"/>
	</defs>
	<clipPath id="SVGID_12_">
		<use xlink:href="#SVGID_11_"  overflow="visible"/>
	</clipPath>
</g>
<g>
	<defs>
		<rect id="SVGID_13_" width="768" height="922"/>
	</defs>
	<clipPath id="SVGID_14_">
		<use xlink:href="#SVGID_13_"  overflow="visible"/>
	</clipPath>
</g>
<g>
	<defs>
		<rect id="SVGID_15_" width="768" height="922"/>
	</defs>
	<clipPath id="SVGID_16_">
		<use xlink:href="#SVGID_15_"  overflow="visible"/>
	</clipPath>
</g>
<g>
	<defs>
		<rect id="SVGID_17_" width="768" height="922"/>
	</defs>
	<clipPath id="SVGID_18_">
		<use xlink:href="#SVGID_17_"  overflow="visible"/>
	</clipPath>
</g>
<g>
	<defs>
		<rect id="SVGID_19_" width="768" height="922"/>
	</defs>
	<clipPath id="SVGID_20_">
		<use xlink:href="#SVGID_19_"  overflow="visible"/>
	</clipPath>
</g>
<g>
	<defs>
		<rect id="SVGID_21_" width="768" height="922"/>
	</defs>
	<clipPath id="SVGID_22_">
		<use xlink:href="#SVGID_21_"  overflow="visible"/>
	</clipPath>
</g>
<g>
	<defs>
		<rect id="SVGID_23_" width="768" height="922"/>
	</defs>
	<clipPath id="SVGID_24_">
		<use xlink:href="#SVGID_23_"  overflow="visible"/>
	</clipPath>
</g>
<g>
	<defs>
		<rect id="SVGID_25_" width="768" height="922"/>
	</defs>
	<clipPath id="SVGID_26_">
		<use xlink:href="#SVGID_25_"  overflow="visible"/>
	</clipPath>
</g>
<g>
	<defs>
		<rect id="SVGID_27_" width="768" height="922"/>
	</defs>
	<clipPath id="SVGID_28_">
		<use xlink:href="#SVGID_27_"  overflow="visible"/>
	</clipPath>
</g>
<g>
	<defs>
		<rect id="SVGID_29_" width="768" height="922"/>
	</defs>
	<clipPath id="SVGID_30_">
		<use xlink:href="#SVGID_29_"  overflow="visible"/>
	</clipPath>
</g>
<g>
	<defs>
		<rect id="SVGID_31_" width="768" height="922"/>
	</defs>
	<clipPath id="SVGID_32_">
		<use xlink:href="#SVGID_31_"  overflow="visible"/>
	</clipPath>
</g>
<g>
	<defs>
		<rect id="SVGID_33_" width="768" height="922"/>
	</defs>
	<clipPath id="SVGID_34_">
		<use xlink:href="#SVGID_33_"  overflow="visible"/>
	</clipPath>
</g>
<g>
	<defs>
		<rect id="SVGID_35_" width="768" height="922"/>
	</defs>
	<clipPath id="SVGID_36_">
		<use xlink:href="#SVGID_35_"  overflow="visible"/>
	</clipPath>
</g>
<g>
	<defs>
		<rect id="SVGID_37_" width="768" height="922"/>
	</defs>
	<clipPath id="SVGID_38_">
		<use xlink:href="#SVGID_37_"  overflow="visible"/>
	</clipPath>
</g>
<g>
	<defs>
		<rect id="SVGID_39_" width="768" height="922"/>
	</defs>
	<clipPath id="SVGID_40_">
		<use xlink:href="#SVGID_39_"  overflow="visible"/>
	</clipPath>
</g>
<g>
	<defs>
		<rect id="SVGID_41_" width="768" height="922"/>
	</defs>
	<clipPath id="SVGID_42_">
		<use xlink:href="#SVGID_41_"  overflow="visible"/>
	</clipPath>
</g>
<g>
	<defs>
		<rect id="SVGID_43_" width="768" height="922"/>
	</defs>
	<clipPath id="SVGID_44_">
		<use xlink:href="#SVGID_43_"  overflow="visible"/>
	</clipPath>
</g>
<g>
	<defs>
		<rect id="SVGID_45_" width="768" height="922"/>
	</defs>
	<clipPath id="SVGID_46_">
		<use xlink:href="#SVGID_45_"  overflow="visible"/>
	</clipPath>
</g>
</svg>
